<?xml version="1.0" encoding="utf-8"?>
<!-- Generator: Adobe Illustrator 27.5.0, SVG Export Plug-In . SVG Version: 6.00 Build 0)  -->
<svg version="1.1" id="Layer_1" xmlns="http://www.w3.org/2000/svg" xmlns:xlink="http://www.w3.org/1999/xlink" x="0px" y="0px"
	 viewBox="0 0 400 450" style="enable-background:new 0 0 400 450;" xml:space="preserve">
<g>
	<path style="fill:#787878;" d="M118.916,374.558l66.97-4.367l1.736,26.638c0.359,5.51-4.372,10.306-10.569,10.711l-44.527,2.904
		c-6.197,0.403-11.512-3.736-11.872-9.247L118.916,374.558z"/>
	<path style="fill:#787878;" d="M127.377,405.478l54.136-3.532l0.269,4.117c0.18,2.755-2.187,5.152-5.284,5.354l-42.916,2.799
		c-3.097,0.202-5.755-1.869-5.936-4.623L127.377,405.478z"/>
</g>
<rect x="133.072" y="371.254" style="fill:#003C64;" width="40.584" height="13.549"/>
<g>
	<path style="fill:#787878;" d="M228.865,69.9h-67.112V43.205c0-5.523,5.035-10,11.245-10h44.622c6.21,0,11.245,4.477,11.245,10
		V69.9z"/>
	<path style="fill:#787878;" d="M222.435,38.495h-54.252v-4.124c0-2.761,2.518-5,5.623-5h43.006c3.106,0,5.623,2.239,5.623,5V38.495
		z"/>
</g>
<g>
	<path style="fill:#787878;" d="M313.83,208.942l-3.307-67.03l28.926-1.427c5.984-0.294,11.084,4.494,11.391,10.699l2.197,44.564
		c0.306,6.203-4.299,11.472-10.281,11.767L313.83,208.942z"/>
	<path style="fill:#787878;" d="M347.539,200.843l-2.669-54.187l4.468-0.221c2.992-0.146,5.543,2.248,5.695,5.349l2.117,42.954
		c0.154,3.1-2.148,5.735-5.142,5.883L347.539,200.843z"/>
</g>
<rect x="296.256" y="162.874" transform="matrix(0.0024 -1 1 0.0024 141.415 490.3876)" style="fill:#BE3700;" width="40.488" height="22.879"/>
<g>
	<path style="fill:#787878;" d="M226.215,370.228l67.108,0.636l-0.267,28.251c-0.057,5.843-5.134,10.534-11.347,10.476
		l-44.616-0.422c-6.211-0.06-11.202-4.847-11.145-10.69L226.215,370.228z"/>
	<path style="fill:#787878;" d="M232.33,403.522l54.25,0.517l-0.043,4.363c-0.028,2.922-2.567,5.268-5.672,5.238l-43.004-0.408
		c-3.104-0.028-5.602-2.423-5.572-5.346L232.33,403.522z"/>
</g>
<g>
	<path style="fill:#787878;" d="M83.325,126.062l-3.742,67.009l-26.654-1.488c-5.513-0.309-9.704-5.584-9.357-11.787l2.487-44.549
		c0.347-6.202,5.099-10.98,10.612-10.671L83.325,126.062z"/>
	<path style="fill:#787878;" d="M51.613,130.732L48.585,184.9l-4.117-0.231c-2.757-0.155-4.853-2.793-4.679-5.893l2.399-42.938
		c0.172-3.1,2.549-5.49,5.307-5.335L51.613,130.732z"/>
</g>
<g>
	<path style="fill:#787878;" d="M85.109,221.556l3.306,67.03l-28.926,1.427c-5.984,0.294-11.083-4.494-11.39-10.699l-2.198-44.565
		c-0.305-6.203,4.299-11.472,10.282-11.767L85.109,221.556z"/>
	<path style="fill:#787878;" d="M51.399,229.655l2.669,54.186l-4.467,0.221c-2.993,0.147-5.543-2.248-5.695-5.349l-2.117-42.954
		c-0.154-3.1,2.148-5.735,5.141-5.883L51.399,229.655z"/>
</g>
<g>
	<path style="fill:#787878;" d="M315.096,299.659l-4.367-66.97l26.638-1.737c5.51-0.359,10.306,4.372,10.711,10.569l2.904,44.527
		c0.403,6.197-3.736,11.513-9.247,11.873L315.096,299.659z"/>
	<path style="fill:#787878;" d="M346.016,291.198l-3.532-54.136l4.117-0.27c2.755-0.18,5.152,2.187,5.354,5.285l2.799,42.916
		c0.202,3.097-1.869,5.755-4.623,5.936L346.016,291.198z"/>
</g>
<rect x="311.792" y="244.919" style="fill:#009687;" width="13.549" height="40.584"/>
<rect x="236.626" y="366.2" transform="matrix(1 -0.0019 0.0019 1 -0.6942 0.4834)" style="fill:#C88C00;" width="45.1" height="13.551"/>
<rect x="173.006" y="61.057" style="fill:#003C64;" width="45.1" height="13.551"/>
<rect x="62.195" y="244.745" transform="matrix(0.0024 -1 1 0.0024 -173.945 337.9995)" style="fill:#BE3700;" width="40.488" height="22.879"/>
<rect x="71.978" y="138.031" transform="matrix(1 -0.0053 0.0053 1 -0.8353 0.4183)" style="fill:#C88C00;" width="13.55" height="40.584"/>
<rect x="77.285" y="66.871" style="fill:#336E7B;" width="240.161" height="308"/>
<g>
	<g>
		<rect x="163.921" y="92.226" style="fill:#505050;" width="73.979" height="49.145"/>
		<rect x="199.16" y="92.226" style="fill:#3C3C3C;" width="1.5" height="49.145"/>
	</g>
	<g>
		<rect x="166.087" y="95.146" style="fill:#FFFFFF;" width="32.125" height="43.303"/>
		<g>
			<g>
				<rect x="168.379" y="124.606" style="fill:#E6E6E6;" width="26.93" height="2.976"/>
				<rect x="168.379" y="119.488" style="fill:#E6E6E6;" width="26.93" height="2.975"/>
				<rect x="168.379" y="114.369" style="fill:#E6E6E6;" width="26.93" height="2.976"/>
				<rect x="168.379" y="109.251" style="fill:#E6E6E6;" width="26.93" height="2.976"/>
				<rect x="168.38" y="104.133" style="fill:#E6E6E6;" width="26.93" height="2.975"/>
				<rect x="168.379" y="99.014" style="fill:#E6E6E6;" width="26.93" height="2.976"/>
			</g>
			<rect x="168.57" y="130.586" style="fill:#E6E6E6;" width="26.688" height="4.619"/>
		</g>
	</g>
</g>
<g>
	<g>
		<path style="fill:#FCDABF;" d="M221.509,102.392l9.495,3.919c0.025,2.084-0.45,4.143-1.389,6.004l-2.657,5.272l-11.767-2.666
			L221.509,102.392z"/>
		<path style="fill:#FCDABF;" d="M217.098,111.102l2.712,1.119l-5.091,10.096c-1.277,2.531-3.988,1.412-2.711-1.119L217.098,111.102
			z"/>
		<path style="fill:#FCDABF;" d="M219.695,112.445l2.711,1.118l-5.723,11.349c-0.961,1.909-3.673,0.791-2.711-1.119L219.695,112.445
			z"/>
		<path style="fill:#FCDABF;" d="M222.101,114.188l2.711,1.119l-4.874,9.667c-0.781,1.55-3.492,0.431-2.711-1.12L222.101,114.188z"
			/>
		<path style="fill:#FCDABF;" d="M225.275,114.386l2.711,1.118l-3.531,7.002c-1.165,2.313-3.875,1.195-2.71-1.118L225.275,114.386z"
			/>
		<path style="fill:#FCDABF;" d="M221.376,103.687l-1.388,4.556l-5.963,3.627c0,0-2.035,1.148-3.053-0.603l7.895-6.998
			L221.376,103.687z"/>
	</g>
	<path style="fill:#E4B69D;" d="M214.185,123.319c0,0,1.002-2.23,2.044-4.44c0.256-0.555,0.513-1.109,0.754-1.629
		c0.258-0.511,0.529-0.972,0.76-1.369c0.473-0.787,0.842-1.285,0.842-1.285l0.045,0.022c0,0-0.181,0.593-0.532,1.441
		c-0.184,0.421-0.393,0.913-0.649,1.425c-0.275,0.502-0.568,1.039-0.862,1.574c-1.157,2.152-2.356,4.283-2.356,4.283
		L214.185,123.319z"/>
	<path style="fill:#E4B69D;" d="M216.839,124.487c0,0,1.038-2.303,2.117-4.585c0.266-0.573,0.531-1.145,0.78-1.682
		c0.267-0.528,0.547-1.004,0.783-1.415c0.486-0.814,0.865-1.33,0.865-1.33l0.045,0.022c0,0-0.189,0.611-0.556,1.486
		c-0.189,0.434-0.406,0.943-0.673,1.471c-0.283,0.519-0.586,1.073-0.889,1.627c-1.194,2.224-2.429,4.427-2.429,4.427
		L216.839,124.487z"/>
	<path style="fill:#E4B69D;" d="M220.843,123.123c0,0,0.924-2.078,1.889-4.136c0.237-0.517,0.475-1.033,0.697-1.517
		c0.239-0.475,0.495-0.903,0.71-1.272c0.444-0.73,0.794-1.19,0.794-1.19l0.045,0.022c0,0-0.161,0.555-0.484,1.346
		c-0.168,0.392-0.36,0.852-0.6,1.327c-0.257,0.467-0.531,0.965-0.805,1.462c-1.08,2-2.201,3.979-2.201,3.979L220.843,123.123z"/>
</g>
<g>
	<g>
		<path style="fill:#FCDABF;" d="M179.904,87.039l-7.425,7.1c0.733,1.951,1.924,3.696,3.474,5.089l4.39,3.947l9.995-6.756
			L179.904,87.039z"/>
		<path style="fill:#FCDABF;" d="M187.177,93.553l-2.121,2.028l8.409,7.558c2.109,1.896,4.229-0.132,2.12-2.026L187.177,93.553z"/>
		<path style="fill:#FCDABF;" d="M185.244,95.748l-2.12,2.027l9.452,8.496c1.589,1.43,3.709-0.597,2.119-2.027L185.244,95.748z"/>
		<path style="fill:#FCDABF;" d="M183.636,98.246l-2.12,2.026l8.05,7.237c1.29,1.16,3.411-0.866,2.12-2.027L183.636,98.246z"/>
		<path style="fill:#FCDABF;" d="M180.749,99.582l-2.12,2.027l5.832,5.242c1.926,1.732,4.045-0.295,2.119-2.026L180.749,99.582z"/>
		<path style="fill:#FCDABF;" d="M180.498,88.197l2.948,3.742l6.872,1.215c0,0,2.313,0.33,2.625-1.671l-9.896-3.654L180.498,88.197z
			"/>
	</g>
	<path style="fill:#E4B69D;" d="M194.293,103.916c0,0-1.89-1.55-3.75-3.135c-0.468-0.393-0.936-0.786-1.375-1.154
		c-0.426-0.383-0.799-0.766-1.123-1.092c-0.636-0.663-1.019-1.15-1.019-1.15l0.033-0.037c0,0,0.525,0.33,1.251,0.891
		c0.358,0.287,0.779,0.618,1.205,1c0.413,0.397,0.853,0.82,1.293,1.244c1.773,1.681,3.516,3.396,3.516,3.396L194.293,103.916z"/>
	<path style="fill:#E4B69D;" d="M192.244,105.969c0,0-1.951-1.604-3.871-3.243c-0.483-0.407-0.966-0.813-1.419-1.194
		c-0.44-0.396-0.827-0.791-1.161-1.127c-0.659-0.683-1.057-1.183-1.057-1.183l0.033-0.037c0,0,0.54,0.343,1.289,0.925
		c0.37,0.296,0.804,0.639,1.244,1.035c0.427,0.41,0.882,0.846,1.338,1.283c1.833,1.735,3.637,3.504,3.637,3.504L192.244,105.969z"/>
	<path style="fill:#E4B69D;" d="M188.018,106.151c0,0-1.763-1.437-3.495-2.908c-0.436-0.365-0.872-0.729-1.281-1.071
		c-0.396-0.356-0.741-0.715-1.04-1.019c-0.588-0.62-0.94-1.079-0.94-1.079l0.033-0.037c0,0,0.493,0.301,1.172,0.82
		c0.334,0.265,0.727,0.571,1.123,0.927c0.383,0.37,0.792,0.765,1.2,1.16c1.646,1.567,3.261,3.169,3.261,3.169L188.018,106.151z"/>
</g>
<g>
	<path style="fill:#005078;" d="M195.546,65.62c13.663-1.339,22.334-3.837,34.626-10.5l-6.5-12c0-1.974-28.126-7.953-28.126-6.25
		c0-1.703-28.125,4.276-28.125,6.25l-6.5,12C173.212,61.783,181.884,64.281,195.546,65.62z"/>
	<polygon style="fill:#005078;" points="166.516,78.125 153.606,72.926 160.921,55.12 174.049,59.423 	"/>
	<polygon style="fill:#005078;" points="241.123,78.906 228.461,84.68 217.537,60.725 230.172,55.12 	"/>
	<polygon style="fill:#005078;" points="183.533,87.598 172.98,96.67 153.606,72.926 163.685,64.512 	"/>
	<polygon style="fill:#005078;" points="232.377,107.789 219.066,103.721 227.967,74.607 241.123,78.906 	"/>
</g>
<path style="fill:#FCDABF;" d="M214.547,35.495c0,6.86-1.871,13.12-4.94,17.819c-0.03,0.061-0.04,0.07-0.04,0.061
	c0,0.01-0.01,0.02-0.01,0.02c-3.471,5.291-8.471,8.601-14.011,8.601c-5.54,0-10.54-3.31-14.01-8.601c0-0.01-0.01-0.01-0.01-0.02
	c0,0.01-0.01,0-0.04-0.061c-3.07-4.699-4.94-10.959-4.94-17.819c0-14.64,8.51-20.5,19-20.5
	C206.037,14.995,214.547,20.855,214.547,35.495z"/>
<path style="fill:#FCDABF;" d="M199.991,60.057c-1.444,0.738-3.119,5.189-4.445,5.189s-3.001-4.45-4.445-5.189H199.991z"/>
<path style="fill:#826A56;" d="M214.547,35.495c0,6.86-1.871,13.12-4.94,17.819c-0.03,0.061-0.04,0.07-0.04,0.061
	c0.21-0.46-0.311-5.32-2.77-5.32c-2.5,0-3.061,6-11.251,6c-8.19,0-8.75-6-11.25-6c-2.46,0-2.98,4.86-2.77,5.32
	c0,0.01-0.01,0-0.04-0.061c-3.07-4.699-4.94-10.959-4.94-17.819c0-14.64,8.51-20.5,19-20.5
	C206.037,14.995,214.547,20.855,214.547,35.495z"/>
<path style="fill:#78604C;" d="M206.797,48.055c2.459,0,2.98,4.86,2.77,5.32c0,0.01,0.01,0,0.04-0.061
	c3.069-4.699,4.94-10.959,4.94-17.819c0-14.64-8.51-20.5-19.001-20.5v39.06C203.736,54.055,204.297,48.055,206.797,48.055z"/>
<g>
	<path style="fill:#505050;" d="M226.067,299.365c0.418,0.928,0.005,2.019-0.923,2.437l-11.15,5.023
		c-0.928,0.418-2.018,0.005-2.437-0.923l-10.01-22.218c-0.418-0.928-0.005-2.019,0.923-2.437l11.15-5.023
		c0.928-0.418,2.018-0.005,2.436,0.923L226.067,299.365z"/>
	
		<rect x="206.931" y="279.826" transform="matrix(0.9118 -0.4107 0.4107 0.9118 -100.5801 113.3255)" style="fill:#C5EFF7;" width="13.05" height="21.841"/>
	
		<rect x="215.879" y="301.543" transform="matrix(0.9117 -0.4109 0.4109 0.9117 -104.9905 116.6124)" style="fill:#787878;" width="5.781" height="1.985"/>
	<polygon style="opacity:0.5;fill:#FFFFFF;" points="219.003,287.171 214.919,278.109 205.855,282.192 	"/>
</g>
<g>
	<path style="fill:#F0F0F0;" d="M123.11,288.959c6.508,0.841,10.413,4.638,9.896,8.636c-0.516,3.998-5.259,6.679-11.766,5.837
		c-6.509-0.841-13.268-5.009-12.753-9.005C109.003,290.429,116.602,288.118,123.11,288.959z"/>
	
		<rect x="115.859" y="295.822" transform="matrix(0.1287 -0.9917 0.9917 0.1287 -186.5523 380.317)" style="fill:#C8C8C8;" width="14.595" height="1.001"/>
	
		<rect x="127.831" y="291.994" transform="matrix(0.128 -0.9918 0.9918 0.128 -182.8336 385.9628)" style="fill:#C8C8C8;" width="0.501" height="9.93"/>
	<path style="fill:#C8C8C8;" d="M127.635,296.002c1.109,0.145,1.955,0.655,1.895,1.145c-0.065,0.487-1.016,0.767-2.124,0.624
		c-1.107-0.143-1.953-0.656-1.89-1.143C125.58,296.139,126.529,295.86,127.635,296.002z"/>
</g>
<g>
	<g>
		<path style="fill:#FCDABF;" d="M110.114,289.348l-2.992,8.939l1.134,0.752c1.428,1.268,2.009,1.426,3.862,1.893l5.254,1.327
			l5.225-9.76L110.114,289.348z"/>
		<path style="fill:#FCDABF;" d="M118.806,291.524l-0.856,2.553l10.061,2.542c2.523,0.635,3.376-1.918,0.854-2.554L118.806,291.524z
			"/>
		<path style="fill:#FCDABF;" d="M118.175,294.136l-0.856,2.551l11.31,2.855c1.902,0.483,2.756-2.071,0.854-2.551L118.175,294.136z"
			/>
		<path style="fill:#FCDABF;" d="M117.938,296.852l-0.855,2.551l9.633,2.433c1.543,0.39,2.399-2.163,0.854-2.553L117.938,296.852z"
			/>
		<path style="fill:#FCDABF;" d="M116.164,299.171l-0.853,2.552l6.979,1.763c2.302,0.583,3.157-1.971,0.852-2.554L116.164,299.171z"
			/>
		<path style="fill:#FCDABF;" d="M111.09,290.032l3.994,1.778l6.1-1.953c0,0,2.019-0.721,1.417-2.479l-9.599,1.265L111.09,290.032z"
			/>
	</g>
	<path style="fill:#E4B69D;" d="M129.013,296.898c0,0-2.199-0.441-4.388-0.928c-0.548-0.117-1.096-0.234-1.61-0.344
		c-0.51-0.129-0.976-0.283-1.377-0.412c-0.798-0.271-1.316-0.511-1.316-0.511l0.013-0.048c0,0,0.569,0.034,1.4,0.174
		c0.414,0.077,0.898,0.163,1.407,0.291c0.504,0.147,1.042,0.305,1.581,0.462c2.157,0.612,4.303,1.267,4.303,1.267L129.013,296.898z"
		/>
	<path style="fill:#E4B69D;" d="M128.228,299.441c0,0-2.271-0.46-4.533-0.964c-0.566-0.122-1.132-0.244-1.664-0.358
		c-0.526-0.133-1.008-0.291-1.423-0.422c-0.825-0.278-1.361-0.523-1.361-0.523l0.013-0.048c0,0,0.587,0.038,1.446,0.185
		c0.427,0.08,0.927,0.17,1.453,0.304c0.521,0.15,1.078,0.313,1.635,0.474c2.229,0.631,4.447,1.305,4.447,1.305L128.228,299.441z"/>
	<path style="fill:#E4B69D;" d="M124.877,301.397c0,0-2.048-0.403-4.086-0.852c-0.51-0.107-1.02-0.217-1.499-0.316
		c-0.474-0.12-0.907-0.267-1.28-0.389c-0.741-0.256-1.221-0.487-1.221-0.487l0.013-0.047c0,0,0.531,0.023,1.306,0.15
		c0.385,0.07,0.835,0.147,1.309,0.267c0.47,0.14,0.97,0.286,1.47,0.434c2.007,0.573,4.001,1.192,4.001,1.192L124.877,301.397z"/>
</g>
<g>
	<g>
		<path style="fill:#F0F0F0;" d="M95.966,284.478c-0.856,0.048-1.696-0.247-2.336-0.818c-0.639-0.572-1.024-1.375-1.072-2.232
			l-2.839-51.18c-0.099-1.781,1.265-3.306,3.047-3.404l33.84-1.878c1.782-0.1,3.306,1.266,3.405,3.048l2.842,51.179
			c0.099,1.782-1.266,3.308-3.048,3.406L95.966,284.478z"/>
		
			<rect x="92.92" y="245.868" transform="matrix(0.9985 -0.0554 0.0554 0.9985 -13.9959 5.9203)" style="fill:#B4B4B4;" width="13.621" height="18.809"/>
		<g>
			
				<rect x="125.283" y="229.541" transform="matrix(0.9985 -0.0556 0.0556 0.9985 -12.6623 7.3763)" style="fill:#787878;" width="1.694" height="3.063"/>
			
				<rect x="125.512" y="233.673" transform="matrix(0.9985 -0.0556 0.0556 0.9985 -12.8799 7.3881)" style="fill:#787878;" width="1.694" height="3.064"/>
			
				<rect x="125.742" y="237.808" transform="matrix(0.9985 -0.0555 0.0555 0.9985 -13.0838 7.3919)" style="fill:#787878;" width="1.692" height="3.063"/>
			
				<rect x="125.971" y="241.943" transform="matrix(0.9984 -0.0558 0.0558 0.9984 -13.3898 7.4567)" style="fill:#787878;" width="1.693" height="3.063"/>
			
				<rect x="126.43" y="250.211" transform="matrix(0.9985 -0.0553 0.0553 0.9985 -13.7266 7.4236)" style="fill:#787878;" width="1.694" height="3.063"/>
			
				<rect x="126.66" y="254.344" transform="matrix(0.9985 -0.0552 0.0552 0.9985 -13.9229 7.4245)" style="fill:#787878;" width="1.692" height="3.063"/>
			
				<rect x="126.889" y="258.48" transform="matrix(0.9985 -0.0553 0.0553 0.9985 -14.1832 7.4617)" style="fill:#787878;" width="1.693" height="3.063"/>
			
				<rect x="127.118" y="262.612" transform="matrix(0.9985 -0.0548 0.0548 0.9985 -14.2813 7.4085)" style="fill:#787878;" width="1.693" height="3.064"/>
			
				<rect x="127.577" y="270.88" transform="matrix(0.9985 -0.0553 0.0553 0.9985 -14.8679 7.5187)" style="fill:#787878;" width="1.693" height="3.063"/>
			
				<rect x="127.807" y="275.015" transform="matrix(0.9985 -0.0554 0.0554 0.9985 -15.1098 7.545)" style="fill:#787878;" width="1.694" height="3.063"/>
			
				<rect x="121.617" y="229.712" transform="matrix(0.9985 -0.0554 0.0554 0.9985 -12.6115 7.1671)" style="fill:#787878;" width="2.829" height="2.92"/>
			
				<rect x="121.822" y="233.399" transform="matrix(0.9984 -0.0557 0.0557 0.9984 -12.8889 7.228)" style="fill:#787878;" width="2.828" height="2.92"/>
			
				<rect x="122.027" y="237.085" transform="matrix(0.9984 -0.0559 0.0559 0.9984 -13.1329 7.2682)" style="fill:#787878;" width="2.828" height="2.919"/>
			
				<rect x="122.232" y="240.771" transform="matrix(0.9984 -0.0557 0.0557 0.9984 -13.2988 7.2623)" style="fill:#787878;" width="2.827" height="2.919"/>
			
				<rect x="122.436" y="244.456" transform="matrix(0.9985 -0.0554 0.0554 0.9985 -13.431 7.2375)" style="fill:#787878;" width="2.828" height="2.918"/>
			
				<rect x="122.64" y="248.142" transform="matrix(0.9984 -0.0559 0.0559 0.9984 -13.7545 7.3225)" style="fill:#787878;" width="2.829" height="2.919"/>
			
				<rect x="122.845" y="251.828" transform="matrix(0.9985 -0.0553 0.0553 0.9985 -13.8249 7.2637)" style="fill:#787878;" width="2.828" height="2.92"/>
			
				<rect x="123.05" y="255.514" transform="matrix(0.9985 -0.0555 0.0555 0.9985 -14.0713 7.3044)" style="fill:#787878;" width="2.829" height="2.921"/>
			
				<rect x="123.254" y="259.201" transform="matrix(0.9985 -0.0552 0.0552 0.9985 -14.1981 7.2789)" style="fill:#787878;" width="2.828" height="2.919"/>
			
				<rect x="123.459" y="262.886" transform="matrix(0.9985 -0.0555 0.0555 0.9985 -14.485 7.3413)" style="fill:#787878;" width="2.828" height="2.92"/>
			
				<rect x="123.663" y="266.573" transform="matrix(0.9985 -0.0554 0.0554 0.9985 -14.6588 7.342)" style="fill:#787878;" width="2.829" height="2.918"/>
			
				<rect x="123.869" y="270.259" transform="matrix(0.9985 -0.0547 0.0547 0.9985 -14.6854 7.2651)" style="fill:#787878;" width="2.828" height="2.918"/>
			
				<rect x="118.575" y="235.041" transform="matrix(0.9984 -0.0559 0.0559 0.9984 -13.0285 7.0748)" style="fill:#787878;" width="2.828" height="2.918"/>
			
				<rect x="118.762" y="238.414" transform="matrix(0.9984 -0.0559 0.0559 0.9984 -13.2212 7.093)" style="fill:#787878;" width="2.828" height="2.919"/>
			
				<rect x="118.949" y="241.786" transform="matrix(0.9985 -0.0552 0.0552 0.9985 -13.2388 7.0122)" style="fill:#787878;" width="2.828" height="2.918"/>
			
				<rect x="119.137" y="245.159" transform="matrix(0.9984 -0.0557 0.0557 0.9984 -13.5526 7.0993)" style="fill:#787878;" width="2.828" height="2.919"/>
			
				<rect x="119.325" y="248.531" transform="matrix(0.9985 -0.0548 0.0548 0.9985 -13.5279 6.9975)" style="fill:#787878;" width="2.828" height="2.919"/>
			
				<rect x="119.511" y="251.906" transform="matrix(0.9984 -0.0559 0.0559 0.9984 -13.9742 7.156)" style="fill:#787878;" width="2.827" height="2.918"/>
			
				<rect x="119.698" y="255.279" transform="matrix(0.9984 -0.056 0.056 0.9984 -14.1924 7.1879)" style="fill:#787878;" width="2.828" height="2.919"/>
			
				<rect x="119.886" y="258.651" transform="matrix(0.9985 -0.0553 0.0553 0.9985 -14.1862 7.0993)" style="fill:#787878;" width="2.828" height="2.918"/>
			
				<rect x="120.074" y="262.026" transform="matrix(0.9984 -0.0559 0.0559 0.9984 -14.5346 7.2009)" style="fill:#787878;" width="2.827" height="2.918"/>
			
				<rect x="120.26" y="265.396" transform="matrix(0.9985 -0.0552 0.0552 0.9985 -14.5446 7.1231)" style="fill:#787878;" width="2.829" height="2.92"/>
			
				<rect x="120.448" y="268.771" transform="matrix(0.9984 -0.0557 0.0557 0.9984 -14.8755 7.2139)" style="fill:#787878;" width="2.828" height="2.917"/>
			
				<rect x="120.634" y="272.143" transform="matrix(0.9985 -0.0556 0.0556 0.9985 -15.0126 7.2035)" style="fill:#787878;" width="2.828" height="2.919"/>
			
				<rect x="119.82" y="275.544" transform="matrix(0.9985 -0.0549 0.0549 0.9985 -15.0173 7.0977)" style="fill:#787878;" width="3.831" height="2.918"/>
			
				<rect x="115.31" y="236.017" transform="matrix(0.9985 -0.055 0.055 0.9985 -12.8949 6.7851)" style="fill:#787878;" width="2.829" height="2.918"/>
			
				<rect x="115.495" y="239.388" transform="matrix(0.9985 -0.0556 0.0556 0.9985 -13.2007 6.8675)" style="fill:#787878;" width="2.83" height="2.919"/>
			
				<rect x="115.685" y="242.761" transform="matrix(0.9984 -0.0559 0.0559 0.9984 -13.4645 6.9253)" style="fill:#787878;" width="2.827" height="2.918"/>
			
				<rect x="115.87" y="246.134" transform="matrix(0.9985 -0.0553 0.0553 0.9985 -13.5157 6.8665)" style="fill:#787878;" width="2.83" height="2.92"/>
			
				<rect x="116.058" y="249.508" transform="matrix(0.9985 -0.0554 0.0554 0.9985 -13.7242 6.8939)" style="fill:#787878;" width="2.829" height="2.918"/>
			
				<rect x="116.246" y="252.882" transform="matrix(0.9984 -0.0557 0.0557 0.9984 -13.9821 6.9475)" style="fill:#787878;" width="2.829" height="2.918"/>
			
				<rect x="116.432" y="256.253" transform="matrix(0.9985 -0.0556 0.0556 0.9985 -14.1359 6.9454)" style="fill:#787878;" width="2.829" height="2.919"/>
			
				<rect x="116.62" y="259.626" transform="matrix(0.9984 -0.0557 0.0557 0.9984 -14.3573 6.9789)" style="fill:#787878;" width="2.829" height="2.919"/>
			
				<rect x="116.806" y="262.999" transform="matrix(0.9984 -0.0557 0.0557 0.9984 -14.5545 6.9994)" style="fill:#787878;" width="2.829" height="2.919"/>
			
				<rect x="116.994" y="266.372" transform="matrix(0.9985 -0.0553 0.0553 0.9985 -14.6172 6.9514)" style="fill:#787878;" width="2.829" height="2.918"/>
			
				<rect x="117.181" y="269.745" transform="matrix(0.9985 -0.0555 0.0555 0.9985 -14.8797 7.0054)" style="fill:#787878;" width="2.829" height="2.919"/>
			
				<rect x="112.129" y="237.883" transform="matrix(0.9985 -0.0554 0.0554 0.9985 -13.0737 6.6516)" style="fill:#787878;" width="2.828" height="2.92"/>
			
				<rect x="112.316" y="241.257" transform="matrix(0.9984 -0.0557 0.0557 0.9984 -13.3453 6.713)" style="fill:#787878;" width="2.828" height="2.919"/>
			
				<rect x="112.503" y="244.631" transform="matrix(0.9985 -0.0554 0.0554 0.9985 -13.4557 6.6875)" style="fill:#787878;" width="2.828" height="2.918"/>
			
				<rect x="112.691" y="248.002" transform="matrix(0.9984 -0.0557 0.0557 0.9984 -13.7118 6.7397)" style="fill:#787878;" width="2.829" height="2.921"/>
			
				<rect x="112.878" y="251.376" transform="matrix(0.9985 -0.0555 0.0555 0.9985 -13.8666 6.7383)" style="fill:#787878;" width="2.828" height="2.918"/>
			
				<rect x="113.065" y="254.748" transform="matrix(0.9985 -0.0551 0.0551 0.9985 -13.9384 6.6945)" style="fill:#787878;" width="2.828" height="2.919"/>
			
				<rect x="113.252" y="258.121" transform="matrix(0.9985 -0.0554 0.0554 0.9985 -14.1974 6.7475)" style="fill:#787878;" width="2.829" height="2.919"/>
			
				<rect x="113.44" y="261.496" transform="matrix(0.9985 -0.0556 0.0556 0.9985 -14.4366 6.7896)" style="fill:#787878;" width="2.828" height="2.918"/>
			
				<rect x="113.627" y="264.866" transform="matrix(0.9984 -0.0557 0.0557 0.9984 -14.6446 6.8157)" style="fill:#787878;" width="2.829" height="2.921"/>
			
				<rect x="113.814" y="268.24" transform="matrix(0.9985 -0.0552 0.0552 0.9985 -14.7163 6.7741)" style="fill:#787878;" width="2.829" height="2.918"/>
			
				<rect x="118.336" y="229.896" transform="matrix(0.9985 -0.0555 0.0555 0.9985 -12.6927 6.9986)" style="fill:#787878;" width="2.828" height="4.588"/>
			
				<rect x="115.05" y="230.078" transform="matrix(0.9985 -0.0553 0.0553 0.9985 -12.7074 6.8029)" style="fill:#787878;" width="2.829" height="5.477"/>
			
				<rect x="111.825" y="230.259" transform="matrix(0.9985 -0.0555 0.0555 0.9985 -12.7957 6.6402)" style="fill:#787878;" width="2.828" height="7.204"/>
			
				<rect x="117.44" y="273.142" transform="matrix(0.9985 -0.0554 0.0554 0.9985 -15.1117 7.0134)" style="fill:#787878;" width="2.83" height="5.477"/>
			
				<rect x="124.103" y="273.662" transform="matrix(0.9984 -0.0559 0.0559 0.9984 -15.2189 7.4423)" style="fill:#787878;" width="2.828" height="4.588"/>
			
				<rect x="114.12" y="271.598" transform="matrix(0.9985 -0.0557 0.0557 0.9985 -15.1367 6.8563)" style="fill:#787878;" width="2.829" height="7.205"/>
			
				<rect x="109.098" y="244.816" transform="matrix(0.9985 -0.0555 0.0555 0.9985 -13.8754 6.5395)" style="fill:#787878;" width="3.353" height="16.43"/>
			
				<rect x="108.019" y="230.456" transform="matrix(0.9984 -0.0557 0.0557 0.9984 -12.842 6.4738)" style="fill:#787878;" width="3.351" height="6.233"/>
			
				<rect x="109.779" y="261.687" transform="matrix(0.9985 -0.0555 0.0555 0.9985 -14.5464 6.5922)" style="fill:#787878;" width="3.352" height="7.192"/>
			
				<rect x="108.309" y="237.319" transform="matrix(0.9985 -0.0549 0.0549 0.9985 -12.9463 6.3996)" style="fill:#787878;" width="3.352" height="2.941"/>
			
				<rect x="108.518" y="240.743" transform="matrix(0.9985 -0.0556 0.0556 0.9985 -13.316 6.5021)" style="fill:#787878;" width="3.352" height="3.628"/>
			
				<rect x="110.139" y="270.278" transform="matrix(0.9985 -0.0554 0.0554 0.9985 -14.8783 6.5619)" style="fill:#787878;" width="1.675" height="2.989"/>
			
				<rect x="110.272" y="272.704" transform="matrix(0.9984 -0.0557 0.0557 0.9984 -15.1004 6.6627)" style="fill:#787878;" width="3.352" height="2.919"/>
			
				<rect x="110.398" y="274.902" transform="matrix(0.9985 -0.0551 0.0551 0.9985 -15.0565 6.546)" style="fill:#787878;" width="1.675" height="3.084"/>
		</g>
	</g>
	<path style="fill:#FFFFFF;" d="M131.681,223.431c0.867-0.047,1.624,0.821,1.686,1.939l3.235,58.269
		c0.06,1.12-0.594,2.066-1.462,2.114l-1.064,0.061c-0.869,0.048-1.624-0.821-1.685-1.942l-3.234-58.267
		c-0.064-1.12,0.591-2.067,1.461-2.116L131.681,223.431z"/>
</g>
<g>
	<g>
		<path style="fill:#FCDABF;" d="M98.977,241.31l6.329-6.985c1.809,0.622,3.439,1.671,4.755,3.057l3.73,3.93l-5.95,9.34
			L98.977,241.31z"/>
		<path style="fill:#FCDABF;" d="M105.132,247.818l1.81-1.996l7.142,7.524c1.792,1.889-0.015,3.884-1.805,1.996L105.132,247.818z"/>
		<path style="fill:#FCDABF;" d="M107.1,245.99l1.808-1.997l8.028,8.461c1.351,1.423-0.454,3.419-1.808,1.995L107.1,245.99z"/>
		<path style="fill:#FCDABF;" d="M109.351,244.451l1.807-1.993l6.838,7.205c1.097,1.155-0.708,3.149-1.806,1.996L109.351,244.451z"
			/>
		<path style="fill:#FCDABF;" d="M110.504,241.771l1.808-1.995l4.954,5.22c1.636,1.724-0.171,3.718-1.806,1.994L110.504,241.771z"/>
		<path style="fill:#FCDABF;" d="M100.056,241.824l3.504,2.61l1.285,6.274c0,0,0.362,2.113-1.467,2.451l-3.599-8.99L100.056,241.824
			z"/>
	</g>
	<path style="fill:#E4B69D;" d="M114.782,254.121c0,0-1.622-1.55-3.212-3.131c-0.4-0.394-0.801-0.785-1.177-1.153
		c-0.361-0.382-0.673-0.761-0.944-1.085c-0.529-0.656-0.838-1.135-0.838-1.135l0.037-0.034c0,0,0.462,0.333,1.091,0.897
		c0.308,0.286,0.67,0.618,1.033,1c0.348,0.394,0.718,0.813,1.09,1.235c1.495,1.67,2.959,3.372,2.959,3.372L114.782,254.121z"/>
	<path style="fill:#E4B69D;" d="M116.615,252.189c0,0-1.674-1.604-3.315-3.238c-0.414-0.406-0.827-0.812-1.214-1.192
		c-0.375-0.395-0.697-0.785-0.977-1.118c-0.549-0.676-0.871-1.169-0.871-1.169l0.037-0.034c0,0,0.475,0.347,1.123,0.93
		c0.317,0.297,0.692,0.641,1.065,1.033c0.36,0.407,0.744,0.841,1.127,1.275c1.547,1.725,3.063,3.48,3.063,3.48L116.615,252.189z"/>
	<path style="fill:#E4B69D;" d="M116.676,248.309c0,0-1.515-1.436-2.997-2.903c-0.374-0.363-0.747-0.727-1.098-1.068
		c-0.336-0.354-0.625-0.709-0.875-1.011c-0.489-0.613-0.771-1.064-0.771-1.064l0.036-0.034c0,0,0.436,0.305,1.023,0.825
		c0.288,0.267,0.627,0.571,0.964,0.926c0.322,0.368,0.667,0.76,1.01,1.151c1.389,1.556,2.744,3.145,2.744,3.145L116.676,248.309z"/>
</g>
<path style="fill:#D35400;" d="M75.096,256.175c-1.17-12.269-3.398-20.06-9.351-31.107l-10.787,5.809
	c-1.773-0.006-7.204,25.23-5.674,25.234c-1.53-0.004,3.776,25.259,5.548,25.264l10.759,5.863
	C71.598,276.217,73.866,268.436,75.096,256.175z"/>
<polygon style="fill:#D35400;" points="86.258,282.266 81.561,293.841 65.591,287.237 69.483,275.461 "/>
<polygon style="fill:#D35400;" points="87.124,215.286 92.279,226.668 70.748,236.421 65.745,225.067 "/>
<polygon style="fill:#D35400;" points="111.534,288.536 108.672,300.699 81.561,293.841 86.258,282.266 "/>
<polygon style="fill:#D35400;" points="107.28,233.346 98.926,242.64 78.599,224.366 87.083,215.284 "/>
<path style="fill:#FCDABF;" d="M48.091,238.914c6.158,0.016,11.774,1.727,15.989,4.507c0.039,0.021,0.049,0.032,0.05,0.043
	c0.009,0,0.02,0.009,0.02,0.009c0.169,0.118,0.339,0.237,0.509,0.354c0.238,0.158,0.468,0.341,0.688,0.511
	c4.043,3.075,6.502,7.25,6.492,11.824c-0.012,4.563-2.481,8.727-6.52,11.782c-0.14,0.106-0.28,0.212-0.42,0.316c0,0,0,0-0.011,0.001
	c-0.26,0.189-0.521,0.382-0.802,0.561c-0.01,0.001-0.01,0.013-0.019,0.011c-0.001,0.01-0.01,0.021-0.05,0.043
	c-4.228,2.758-9.853,4.441-16.011,4.426c-13.142-0.032-18.382-7.747-18.358-17.244C29.67,246.57,34.95,238.881,48.091,238.914z"/>
<path style="fill:#FCDABF;" d="M70.112,252.171c0.658,1.3,4.649,2.813,4.646,4.002c-0.003,1.189-4.001,2.685-4.666,3.98
	L70.112,252.171z"/>
<path style="fill:#524A46;" d="M48.091,238.914c6.158,0.016,11.774,1.727,15.989,4.507c0.039,0.021,0.049,0.032,0.05,0.043
	c0.009,0,0.02,0.009,0.02,0.009c0.169,0.118,0.339,0.237,0.509,0.354l0.688,0.511c0,0-1.259-0.438-1.265,2.129
	c-0.009,3.532,2.243,6.414,2.236,9.768c-0.008,3.363-2.275,6.231-2.285,9.765c-0.005,2.389,0.745,2.295,0.855,2.263
	c-0.26,0.189-0.521,0.382-0.802,0.561c-0.01,0.001-0.01,0.013-0.019,0.011c-0.001,0.01-0.01,0.021-0.05,0.043
	c-4.228,2.758-9.853,4.441-16.011,4.426c-13.142-0.032-18.382-7.747-18.358-17.244C29.67,246.57,34.95,238.881,48.091,238.914z"/>
<path style="fill:#48403C;" d="M64.081,246.466c0.005-2.567,1.265-2.129,1.265-2.129l-0.688-0.511
	c-0.17-0.116-0.341-0.235-0.509-0.354c0,0-0.011-0.009-0.02-0.009c-0.001-0.011-0.011-0.021-0.05-0.043
	c-4.215-2.78-9.831-4.491-15.989-4.507c-13.141-0.033-18.421,7.656-18.442,17.143l36.662,0.09
	C66.28,252.833,64.073,249.969,64.081,246.466z"/>
<g>
	<rect x="152.719" y="239.956" style="fill:#787878;" width="8.416" height="4.82"/>
	<path style="fill:#C8C8C8;" d="M159.81,244.776l-1.355-4.82l-0.263-0.941c-0.043-0.146-0.03-0.306,0.034-0.448l1.006-2.249
		c0.151-0.341,0.121-0.729-0.078-1.04c-0.203-0.314-0.548-0.501-0.919-0.501h-2.65c-0.376,0-0.716,0.187-0.92,0.497
		c-0.203,0.315-0.233,0.703-0.078,1.044l1.006,2.249c0.064,0.143,0.073,0.302,0.035,0.448l-0.264,0.941l-1.359,4.82h0.449
		l1.355-4.82l0.233-0.825c0.069-0.245,0.047-0.509-0.056-0.741l-1.005-2.249c-0.091-0.207-0.073-0.44,0.047-0.63
		c0.121-0.19,0.333-0.303,0.557-0.303h2.65c0.225,0,0.432,0.112,0.557,0.303c0.121,0.189,0.138,0.423,0.047,0.63l-1.01,2.249
		c-0.104,0.232-0.121,0.496-0.052,0.741l0.233,0.825l1.355,4.82H159.81z"/>
</g>
<g>
	
		<rect x="125.755" y="322.685" transform="matrix(0.1293 -0.9916 0.9916 0.1293 -209.4747 431.0997)" style="fill:#505050;" width="30" height="24.303"/>
	
		<rect x="139.939" y="312.264" transform="matrix(0.1294 -0.9916 0.9916 0.1294 -196.6338 422.4404)" style="fill:#8AA5A9;" width="4.616" height="21.863"/>
	<g>
		<path style="fill:#D54A00;" d="M134.932,329.84c-0.115,0.883-1.102,1.489-2.193,1.347l-0.454-0.059
			c-1.091-0.142-1.889-0.981-1.774-1.864c0.115-0.883,1.102-1.489,2.193-1.347l0.454,0.059
			C134.248,328.118,135.047,328.957,134.932,329.84z"/>
	</g>
	<g>
		<path style="fill:#8CA8AB;" d="M140.685,330.59c-0.115,0.883-1.102,1.489-2.193,1.348l-0.453-0.06
			c-1.091-0.142-1.89-0.98-1.774-1.864c0.115-0.883,1.101-1.489,2.192-1.347l0.454,0.059
			C140.001,328.868,140.8,329.707,140.685,330.59z"/>
	</g>
	<g>
		<path style="fill:#8CA8AB;" d="M146.438,331.342c-0.116,0.882-1.103,1.488-2.193,1.346l-0.454-0.059
			c-1.091-0.143-1.889-0.981-1.774-1.864c0.115-0.883,1.102-1.489,2.193-1.347l0.454,0.06
			C145.755,329.62,146.554,330.459,146.438,331.342z"/>
	</g>
	<g>
		<path style="fill:#8CA8AB;" d="M152.191,332.092c-0.116,0.883-1.102,1.489-2.193,1.347l-0.453-0.059
			c-1.091-0.143-1.889-0.982-1.774-1.864c0.115-0.883,1.102-1.489,2.193-1.347l0.454,0.059
			C151.508,330.37,152.307,331.209,152.191,332.092z"/>
	</g>
	<g>
		<g>
			<g>
				<path style="fill:#8CA8AB;" d="M134.291,334.742c-0.143,1.091-1.151,1.867-2.242,1.725l-0.453-0.06
					c-1.091-0.143-1.867-1.151-1.725-2.242l0.06-0.453c0.142-1.091,1.151-1.867,2.242-1.725l0.453,0.059
					c1.091,0.143,1.867,1.151,1.725,2.242L134.291,334.742z"/>
			</g>
			<g>
				<path style="fill:#8CA8AB;" d="M140.045,335.492c-0.143,1.091-1.151,1.867-2.242,1.725l-0.454-0.059
					c-1.091-0.143-1.867-1.151-1.725-2.242l0.059-0.454c0.143-1.091,1.151-1.867,2.242-1.725l0.454,0.06
					c1.091,0.143,1.867,1.151,1.725,2.242L140.045,335.492z"/>
			</g>
			<g>
				<path style="fill:#8CA8AB;" d="M145.798,336.242c-0.143,1.091-1.151,1.867-2.242,1.725l-0.453-0.059
					c-1.091-0.143-1.867-1.151-1.725-2.242l0.059-0.453c0.143-1.091,1.151-1.867,2.242-1.725l0.453,0.059
					c1.091,0.143,1.867,1.151,1.725,2.242L145.798,336.242z"/>
			</g>
			<g>
				<path style="fill:#8CA8AB;" d="M151.552,336.994c-0.142,1.091-1.151,1.867-2.242,1.725l-0.454-0.06
					c-1.091-0.143-1.867-1.151-1.725-2.242l0.06-0.454c0.142-1.091,1.151-1.867,2.242-1.725l0.453,0.06
					c1.091,0.142,1.867,1.151,1.725,2.242L151.552,336.994z"/>
			</g>
		</g>
	</g>
	<g>
		<path style="fill:#8CA8AB;" d="M133.604,340.021c-0.142,1.091-1.151,1.867-2.242,1.725l-0.453-0.06
			c-1.091-0.142-1.867-1.151-1.725-2.242l0.06-0.453c0.142-1.091,1.151-1.866,2.241-1.724l0.455,0.059
			c1.09,0.143,1.866,1.152,1.724,2.243L133.604,340.021z"/>
	</g>
	<g>
		<path style="fill:#8CA8AB;" d="M139.356,340.771c-0.142,1.091-1.151,1.867-2.242,1.725l-0.453-0.059
			c-1.091-0.143-1.867-1.151-1.725-2.242l0.059-0.452c0.143-1.091,1.151-1.867,2.242-1.725l0.454,0.059
			c1.091,0.143,1.867,1.151,1.725,2.242L139.356,340.771z"/>
	</g>
	<g>
		<path style="fill:#8CA8AB;" d="M145.109,341.522c-0.142,1.091-1.151,1.867-2.242,1.725l-0.453-0.06
			c-1.091-0.143-1.867-1.151-1.725-2.242l0.059-0.452c0.142-1.091,1.151-1.867,2.242-1.725l0.453,0.059
			c1.091,0.143,1.867,1.151,1.725,2.242L145.109,341.522z"/>
	</g>
	<g>
		<path style="fill:#8CA8AB;" d="M132.914,345.3c-0.142,1.091-1.151,1.867-2.242,1.725l-0.453-0.06
			c-1.09-0.143-1.867-1.151-1.725-2.242l0.06-0.453c0.142-1.091,1.151-1.866,2.241-1.724l0.454,0.059
			c1.09,0.143,1.866,1.152,1.724,2.243L132.914,345.3z"/>
	</g>
	<g>
		<path style="fill:#8CA8AB;" d="M138.667,346.051c-0.142,1.091-1.151,1.867-2.242,1.725l-0.454-0.06
			c-1.091-0.143-1.867-1.151-1.725-2.242l0.06-0.452c0.142-1.091,1.151-1.867,2.242-1.725l0.452,0.059
			c1.091,0.142,1.867,1.151,1.725,2.242L138.667,346.051z"/>
	</g>
	<g>
		<path style="fill:#8CA8AB;" d="M144.421,346.801c-0.143,1.091-1.151,1.867-2.242,1.725l-0.453-0.059
			c-1.091-0.143-1.867-1.151-1.725-2.242l0.059-0.453c0.142-1.091,1.151-1.867,2.242-1.725l0.453,0.059
			c1.091,0.142,1.867,1.151,1.725,2.242L144.421,346.801z"/>
	</g>
	<g>
		<path style="fill:#DCA000;" d="M150.174,347.552c-0.143,1.091-1.151,1.867-2.242,1.725l-0.454-0.06
			c-1.091-0.143-1.867-1.151-1.725-2.242l0.748-5.732c0.143-1.091,1.151-1.867,2.242-1.725l0.453,0.059
			c1.091,0.143,1.867,1.151,1.725,2.242L150.174,347.552z"/>
	</g>
	<polygon style="fill:#ABC2C0;" points="141.553,325.434 146.729,321.453 140.379,320.625 135.204,324.605 	"/>
	<g>
		<path style="fill:#323232;" d="M150.793,323.37c0.042-0.32,0.123-0.554,0.245-0.699c0.122-0.144,0.323-0.199,0.606-0.162
			c0.283,0.037,0.465,0.141,0.547,0.314c0.083,0.17,0.103,0.415,0.061,0.738l-0.225,1.729c-0.044,0.334-0.127,0.579-0.249,0.74
			c-0.121,0.16-0.327,0.221-0.615,0.184c-0.288-0.037-0.472-0.149-0.547-0.334c-0.077-0.185-0.091-0.444-0.048-0.78L150.793,323.37z
			 M151.831,323.482c0.046-0.351-0.004-0.549-0.15-0.593c-0.023-0.009-0.056-0.016-0.1-0.02c-0.044-0.006-0.087-0.003-0.129,0.008
			c-0.043,0.011-0.086,0.055-0.13,0.132c-0.043,0.076-0.078,0.206-0.102,0.392l-0.23,1.764c0,0.005-0.001,0.011-0.002,0.017
			c-0.042,0.327-0.026,0.525,0.045,0.6c0.038,0.038,0.085,0.061,0.143,0.069c0.059,0.007,0.1,0.009,0.126,0.009
			c0.025-0.001,0.057-0.011,0.089-0.031c0.099-0.058,0.168-0.247,0.211-0.568c0-0.006,0.001-0.009,0.001-0.015L151.831,323.482z"/>
	</g>
	
		<rect x="141.55" y="314.967" transform="matrix(0.1293 -0.9916 0.9916 0.1293 -200.9463 425.3777)" style="fill:#323232;" width="0.424" height="24.304"/>
</g>
<g>
	
		<rect x="201.378" y="178.816" transform="matrix(0.2364 -0.9717 0.9717 0.2364 -28.7487 364.3522)" style="fill:#E6E6E6;" width="32.125" height="43.303"/>
	<g>
		
			<rect x="206.693" y="175.478" transform="matrix(0.2364 -0.9717 0.9717 0.2364 -21.4469 366.9679)" style="fill:#FAFAFA;" width="32.126" height="43.303"/>
		
			<rect x="194.496" y="191.084" transform="matrix(0.2364 -0.9717 0.9717 0.2364 -29.2576 349.385)" style="fill:#EB9532;" width="26.335" height="4.447"/>
		<g>
			
				<rect x="198.558" y="193.567" transform="matrix(0.2364 -0.9717 0.9717 0.2364 -27.1168 354.0859)" style="fill:#D2D2D2;" width="26.334" height="1.457"/>
			
				<rect x="201.61" y="194.309" transform="matrix(0.2364 -0.9716 0.9716 0.2364 -25.5132 357.61)" style="fill:#D2D2D2;" width="26.334" height="1.458"/>
			
				<rect x="204.661" y="195.052" transform="matrix(0.2364 -0.9716 0.9716 0.2364 -23.9039 361.1426)" style="fill:#D2D2D2;" width="26.334" height="1.457"/>
			
				<rect x="207.713" y="195.794" transform="matrix(0.2364 -0.9716 0.9716 0.2364 -22.2968 364.6726)" style="fill:#D2D2D2;" width="26.334" height="1.457"/>
			
				<rect x="210.764" y="196.537" transform="matrix(0.2364 -0.9717 0.9717 0.2364 -20.6763 368.2216)" style="fill:#D2D2D2;" width="26.334" height="1.458"/>
			
				<rect x="213.816" y="197.28" transform="matrix(0.2364 -0.9717 0.9717 0.2364 -19.0732 371.7458)" style="fill:#D2D2D2;" width="26.334" height="1.457"/>
			
				<rect x="216.868" y="198.022" transform="matrix(0.2364 -0.9716 0.9716 0.2364 -17.47 375.27)" style="fill:#D2D2D2;" width="26.334" height="1.457"/>
			
				<rect x="219.92" y="198.765" transform="matrix(0.2364 -0.9717 0.9717 0.2364 -15.8537 378.8127)" style="fill:#D2D2D2;" width="26.335" height="1.456"/>
			
				<rect x="222.972" y="199.507" transform="matrix(0.2364 -0.9717 0.9717 0.2364 -14.2465 382.3423)" style="fill:#D2D2D2;" width="26.334" height="1.457"/>
		</g>
		
			<rect x="226.534" y="199.641" transform="matrix(0.2365 -0.9716 0.9716 0.2365 -12.3765 386.4549)" style="fill:#D2D2D2;" width="26.334" height="2.922"/>
	</g>
</g>
<g>
	
		<rect x="232.621" y="310.313" transform="matrix(0.9565 -0.2919 0.2919 0.9565 -86.0678 87.0452)" style="fill:#E6E6E6;" width="32.125" height="43.303"/>
	
		<rect x="238.202" y="313.184" transform="matrix(0.9564 -0.2919 0.2919 0.9564 -86.6703 88.8095)" style="fill:#FAFAFA;" width="32.124" height="43.303"/>
	
		<rect x="236.692" y="317.68" transform="matrix(0.9565 -0.2919 0.2919 0.9565 -82.4937 86.8599)" style="fill:#D54A00;" width="26.334" height="4.447"/>
	<g>
		
			<rect x="237.912" y="323.172" transform="matrix(0.9565 -0.2919 0.2919 0.9565 -83.6076 87.3902)" style="fill:#D2D2D2;" width="26.334" height="1.457"/>
		
			<rect x="238.829" y="326.177" transform="matrix(0.9565 -0.2918 0.2918 0.9565 -84.4272 87.7642)" style="fill:#D2D2D2;" width="26.334" height="1.457"/>
		
			<rect x="239.746" y="329.18" transform="matrix(0.9565 -0.2919 0.2919 0.9565 -85.2789 88.1835)" style="fill:#D2D2D2;" width="26.334" height="1.457"/>
		
			<rect x="240.663" y="332.184" transform="matrix(0.9565 -0.2918 0.2918 0.9565 -86.1091 88.5731)" style="fill:#D2D2D2;" width="26.334" height="1.458"/>
		
			<rect x="241.58" y="335.189" transform="matrix(0.9565 -0.2919 0.2919 0.9565 -86.9579 88.9876)" style="fill:#D2D2D2;" width="26.333" height="1.457"/>
		
			<rect x="242.496" y="338.192" transform="matrix(0.9564 -0.2919 0.2919 0.9564 -87.8034 89.3979)" style="fill:#D2D2D2;" width="26.334" height="1.457"/>
		
			<rect x="243.413" y="341.196" transform="matrix(0.9565 -0.2919 0.2919 0.9565 -88.6204 89.7692)" style="fill:#D2D2D2;" width="26.334" height="1.457"/>
		
			<rect x="244.33" y="344.201" transform="matrix(0.9565 -0.2919 0.2919 0.9565 -89.4667 90.1801)" style="fill:#D2D2D2;" width="26.333" height="1.456"/>
		
			<rect x="245.247" y="347.205" transform="matrix(0.9564 -0.2919 0.2919 0.9564 -90.3064 90.5826)" style="fill:#D2D2D2;" width="26.334" height="1.457"/>
	</g>
	
		<rect x="246.316" y="349.978" transform="matrix(0.9564 -0.2919 0.2919 0.9564 -91.2889 91.055)" style="fill:#D2D2D2;" width="26.334" height="2.923"/>
</g>
<g>
	<path style="fill:#005078;" d="M261.007,252.553l0.168,1.278c0,0-1.393,0.419-3.718,1.126c-0.294,0.09-0.598,0.178-0.911,0.277
		l-0.234,0.07l-0.19,0.072c-0.132,0.047-0.26,0.096-0.374,0.17l-0.183,0.098c-0.058,0.032-0.1,0.07-0.152,0.107l-0.15,0.104
		l-0.201,0.178l-0.104,0.095l-0.031,0.032c0,0-0.007,0.001-0.011,0.006l-0.016,0.02l-0.191,0.201
		c-0.131,0.137-0.262,0.266-0.394,0.402c-0.987,1.021-2.023,2.106-3.078,3.197c-0.073,0.078-0.153,0.158-0.227,0.236
		c-0.22,0.23-0.44,0.459-0.661,0.688c-2.954,3.061-5.813,6.028-7.291,7.564c-0.416,0.426-0.722,0.742-0.891,0.922l-0.344-0.264
		c-0.85-0.65-1.173-1.727-0.905-2.695c0.981-0.897,2.602-2.357,4.469-4.049c0.974-0.879,2.011-1.82,3.072-2.779
		c0.341-0.311,0.69-0.625,1.038-0.936c0.003-0.005,0.003-0.005,0.006-0.009c1.204-1.085,2.404-2.174,3.533-3.194
		c0.14-0.125,0.282-0.252,0.419-0.379l0.207-0.188l0.069-0.057l0.025-0.025l0.057-0.039l0.105-0.088l0.213-0.17l0.302-0.191
		c0.097-0.061,0.201-0.129,0.3-0.182l0.292-0.13c0.188-0.094,0.383-0.155,0.578-0.21l0.29-0.086l0.24-0.055
		c0.32-0.074,0.627-0.148,0.923-0.216C259.427,252.912,261.007,252.553,261.007,252.553z"/>
	<path style="fill:#005078;" d="M248.043,269.471l1.278-0.171c0,0,0.043-1.453,0.121-3.882c0.01-0.308,0.016-0.625,0.03-0.953
		l0.007-0.244l0.022-0.203c0.01-0.139,0.024-0.275,0.065-0.404l0.046-0.202c0.017-0.063,0.043-0.114,0.064-0.176l0.061-0.171
		l0.12-0.242l0.064-0.124l0.023-0.04c0,0-0.001-0.006,0.002-0.01l0.016-0.021l0.144-0.236c0.098-0.162,0.189-0.322,0.287-0.484
		c0.729-1.219,1.508-2.503,2.286-3.805c0.058-0.092,0.113-0.189,0.17-0.28c0.164-0.272,0.327-0.544,0.491-0.817
		c2.188-3.648,4.31-7.18,5.408-9.008c0.303-0.512,0.528-0.891,0.657-1.1l-0.344-0.264c-0.85-0.65-1.972-0.684-2.838-0.172
		c-0.61,1.181-1.599,3.123-2.747,5.367c-0.594,1.169-1.235,2.416-1.885,3.689c-0.21,0.409-0.424,0.83-0.634,1.246
		c-0.003,0.004-0.003,0.004-0.006,0.008c-0.735,1.445-1.474,2.887-2.166,4.242c-0.084,0.168-0.17,0.34-0.257,0.504l-0.127,0.248
		l-0.037,0.082l-0.018,0.031l-0.023,0.064l-0.057,0.124l-0.108,0.249l-0.107,0.342c-0.033,0.109-0.071,0.228-0.098,0.337
		l-0.048,0.315c-0.042,0.206-0.052,0.411-0.054,0.614l-0.008,0.303l0.011,0.246c0.012,0.328,0.021,0.643,0.031,0.946
		C247.98,267.852,248.043,269.471,248.043,269.471z"/>
	<path style="fill:#00648C;" d="M249.496,258.674c-1.095-0.673-2.547-0.418-3.346,0.624l-4.801,6.266
		c-0.205,0.267-0.351,0.565-0.433,0.874c-0.268,0.969,0.056,2.045,0.905,2.695l2.829,2.168c1.115,0.855,2.715,0.643,3.569-0.473
		l4.801-6.266c0.855-1.115,0.643-2.715-0.473-3.568l-2.829-2.168C249.646,258.77,249.571,258.718,249.496,258.674z M251.774,262.004
		c0.558,0.428,0.664,1.228,0.236,1.785l-4.801,6.266c-0.427,0.557-1.227,0.662-1.784,0.235l-2.829-2.168
		c-0.554-0.425-0.664-1.228-0.237-1.784l4.802-6.266c0.312-0.408,0.828-0.57,1.297-0.463c0.172,0.035,0.338,0.112,0.487,0.227
		L251.774,262.004z"/>
	<path style="fill:#00648C;" d="M256.504,247.881c0.428-0.558,1.228-0.664,1.786-0.236l2.829,2.168
		c0.558,0.427,0.663,1.227,0.235,1.785l-4.801,6.266c-0.427,0.557-1.227,0.662-1.784,0.235l-2.829-2.168
		c-0.558-0.427-0.664-1.228-0.237-1.784L256.504,247.881L256.504,247.881z M255.494,247.105l-4.802,6.266
		c-0.855,1.117-0.643,2.715,0.474,3.57l2.829,2.168c1.116,0.855,2.714,0.645,3.569-0.473l4.802-6.266
		c0.855-1.115,0.643-2.714-0.474-3.568l-2.829-2.168C257.947,245.779,256.35,245.99,255.494,247.105L255.494,247.105z"/>
	
		<rect x="248.83" y="257.141" transform="matrix(0.6082 -0.7938 0.7938 0.6082 -106.4686 300.1074)" style="fill:#00648C;" width="3.878" height="1.528"/>
	<path style="opacity:0.5;fill:#C5EFF7;" d="M251.774,262.004c0.558,0.428,0.664,1.228,0.236,1.785l-4.801,6.266
		c-0.427,0.557-1.227,0.662-1.784,0.235l-2.829-2.168c-0.554-0.425-0.664-1.228-0.237-1.784l4.802-6.266
		c0.312-0.408,0.828-0.57,1.297-0.463c0.172,0.035,0.338,0.112,0.487,0.227L251.774,262.004z"/>
	<path style="opacity:0.5;fill:#C5EFF7;" d="M261.118,249.811c0.558,0.428,0.663,1.229,0.235,1.785l-4.801,6.266
		c-0.428,0.559-1.227,0.664-1.784,0.236l-2.829-2.168c-0.555-0.424-0.665-1.227-0.237-1.785l4.801-6.266
		c0.314-0.408,0.829-0.57,1.297-0.461c0.173,0.035,0.339,0.11,0.488,0.225L261.118,249.811z"/>
	<path style="opacity:0.5;fill:#FFFFFF;" d="M247.161,260.072l-2.971,3.877l8.073-1.069c-0.036-0.335-0.201-0.655-0.489-0.876
		l-2.829-2.168c-0.149-0.114-0.315-0.191-0.487-0.227C247.989,259.502,247.473,259.664,247.161,260.072z"/>
	<path style="opacity:0.5;fill:#FFFFFF;" d="M256.503,247.879l-2.97,3.877l8.073-1.068c-0.036-0.335-0.2-0.656-0.488-0.877
		l-2.83-2.168c-0.149-0.114-0.315-0.189-0.487-0.226C257.333,247.309,256.816,247.471,256.503,247.879z"/>
</g>
<g>
	
		<rect x="93.422" y="200.625" transform="matrix(0.9527 -0.3039 0.3039 0.9527 -56.3296 42.5251)" style="fill:#D54A00;" width="30.029" height="3.164"/>
	
		<rect x="93.421" y="201.496" transform="matrix(0.9527 -0.304 0.304 0.9527 -56.3332 42.5286)" style="fill:#E66400;" width="30.03" height="1.423"/>
	<polygon style="fill:#FAE1B4;" points="123.222,199.151 129.406,195.518 122.259,196.137 	"/>
	<polygon style="fill:#FAF0C8;" points="122.957,198.322 129.406,195.518 122.524,196.966 	"/>
	<polygon style="fill:#D54A00;" points="129.406,195.518 127.633,196.56 127.358,195.694 	"/>
</g>
<g>
	
		<rect x="98.176" y="135.465" transform="matrix(0.1887 -0.982 0.982 0.1887 -61.6134 239.6528)" style="fill:#FFFFFF;" width="32.125" height="43.303"/>
	
		<rect x="116.8" y="157.606" transform="matrix(0.1887 -0.982 0.982 0.1887 -51.4601 258.2142)" style="fill:#DCA000;" width="27.5" height="5.292"/>
	<polygon style="fill:#C8C8C8;" points="109.01,170.115 108.765,170.068 113.977,142.939 114.1,142.963 128.251,145.682 
		128.205,145.927 114.176,143.232 	"/>
	<polygon style="fill:#FF0000;" points="121.951,171.362 121.715,171.281 122.349,169.432 117.559,164.208 119.216,163.832 
		118.872,161.574 118.153,160.633 118.959,158.562 115.198,155.92 118.438,153.862 119.986,149.782 115.12,145.29 115.29,145.106 
		120.28,149.712 118.642,154.028 115.648,155.931 119.263,158.47 118.438,160.593 119.114,161.505 119.498,164.024 118.035,164.357 
		122.633,169.372 	"/>
	<polygon style="fill:#008DA4;" points="117.674,170.576 116.747,166.814 115.09,164.054 112.37,163.531 114.813,159.125 
		115.837,157.335 118.372,156.574 118.679,155.617 120.015,155.075 117.506,152.002 116.29,150.706 116.7,149.454 115.774,147.749 
		117.014,145.506 117.232,145.627 116.06,147.751 116.972,149.429 116.574,150.643 117.694,151.838 120.423,155.18 118.881,155.804 
		118.57,156.775 116.004,157.546 115.03,159.248 112.756,163.351 115.247,163.83 115.275,163.877 116.985,166.735 117.917,170.517 	
		"/>
	
		<rect x="95.643" y="155.363" transform="matrix(0.1887 -0.982 0.982 0.1887 -64.6304 234.1422)" style="fill:#DCDCDC;" width="27.5" height="1.648"/>
	
		<rect x="121.223" y="149.311" transform="matrix(0.1887 -0.982 0.982 0.1887 -47.2998 245.6039)" style="fill:#DCDCDC;" width="7.538" height="4.234"/>
	<g>
		
			<rect x="93.005" y="155.1" transform="matrix(0.1887 -0.982 0.982 0.1887 -66.2718 231.1421)" style="fill:#DCDCDC;" width="27.5" height="1.16"/>
		
			<rect x="91.136" y="154.741" transform="matrix(0.1887 -0.982 0.982 0.1887 -67.4383 229.0092)" style="fill:#DCDCDC;" width="27.5" height="1.16"/>
		
			<rect x="89.267" y="154.382" transform="matrix(0.1887 -0.982 0.982 0.1887 -68.6 226.8866)" style="fill:#DCDCDC;" width="27.5" height="1.159"/>
		
			<rect x="87.399" y="154.021" transform="matrix(0.1887 -0.982 0.982 0.1887 -69.764 224.7547)" style="fill:#DCDCDC;" width="27.499" height="1.16"/>
		
			<rect x="85.53" y="153.664" transform="matrix(0.1887 -0.982 0.982 0.1887 -70.927 222.633)" style="fill:#DCDCDC;" width="27.5" height="1.159"/>
		
			<rect x="83.661" y="153.304" transform="matrix(0.1887 -0.982 0.982 0.1887 -72.0903 220.5066)" style="fill:#DCDCDC;" width="27.5" height="1.161"/>
		
			<rect x="81.792" y="152.945" transform="matrix(0.1887 -0.982 0.982 0.1887 -73.2542 218.3792)" style="fill:#DCDCDC;" width="27.5" height="1.16"/>
	</g>
</g>
<g>
	<g>
		<path style="fill:#FCDABF;" d="M97.274,172.14l6.033,5.962c1.594-0.649,3.007-1.673,4.121-2.984l3.156-3.717l-5.811-8.093
			L97.274,172.14z"/>
		<path style="fill:#FCDABF;" d="M102.483,165.987l1.725,1.703l6.046-7.115c1.517-1.785-0.209-3.486-1.723-1.702L102.483,165.987z"
			/>
		<path style="fill:#FCDABF;" d="M104.341,167.531l1.725,1.701l6.797-7.998c1.144-1.345-0.58-3.046-1.725-1.702L104.341,167.531z"/>
		<path style="fill:#FCDABF;" d="M106.442,168.799l1.724,1.702l5.79-6.812c0.928-1.094-0.795-2.795-1.725-1.703L106.442,168.799z"/>
		<path style="fill:#FCDABF;" d="M107.613,171.15l1.724,1.702l4.193-4.935c1.386-1.63-0.336-3.331-1.721-1.702L107.613,171.15z"/>
		<path style="fill:#FCDABF;" d="M98.217,171.624l3.021-2.521l0.843-5.699c0,0,0.219-1.915-1.442-2.126l-2.787,8.251L98.217,171.624
			z"/>
	</g>
	<path style="fill:#E4B69D;" d="M110.881,159.876c0,0-1.222,1.608-2.479,3.188c-0.31,0.398-0.613,0.802-0.913,1.167
		c-0.306,0.36-0.619,0.674-0.884,0.945c-0.541,0.532-0.948,0.848-0.948,0.848l-0.038-0.033c0,0,0.246-0.452,0.684-1.072
		c0.225-0.306,0.484-0.665,0.79-1.025c0.312-0.355,0.662-0.72,1.005-1.09c1.355-1.496,2.745-2.961,2.745-2.961L110.881,159.876z"/>
	<path style="fill:#E4B69D;" d="M112.624,161.519c0,0-1.266,1.659-2.566,3.29c-0.321,0.411-0.643,0.821-0.945,1.206
		c-0.316,0.372-0.639,0.697-0.912,0.977c-0.558,0.551-0.976,0.881-0.976,0.881l-0.039-0.033c0,0,0.257-0.466,0.711-1.105
		c0.233-0.315,0.502-0.686,0.818-1.058c0.331-0.36,0.684-0.744,1.037-1.127c1.399-1.547,2.833-3.064,2.833-3.064L112.624,161.519z"
		/>
	<path style="fill:#E4B69D;" d="M112.873,165.002c0,0-1.131,1.501-2.297,2.972c-0.287,0.372-0.568,0.748-0.847,1.088
		c-0.285,0.335-0.577,0.624-0.825,0.876c-0.507,0.492-0.892,0.781-0.892,0.781l-0.038-0.033c0,0,0.223-0.426,0.628-1.006
		c0.207-0.285,0.446-0.62,0.731-0.956c0.291-0.33,0.618-0.667,0.939-1.011c1.264-1.387,2.563-2.745,2.563-2.745L112.873,165.002z"/>
</g>
<g>
	<g>
		<path style="fill:#FCDABF;" d="M99.564,141.902l5.686-6.295c1.627,0.56,3.096,1.502,4.282,2.748l3.361,3.532l-5.343,8.41
			L99.564,141.902z"/>
		<path style="fill:#FCDABF;" d="M105.113,147.749l1.626-1.796l6.438,6.762c1.615,1.696-0.01,3.493-1.623,1.797L105.113,147.749z"/>
		<path style="fill:#FCDABF;" d="M106.881,146.104l1.626-1.796l7.238,7.602c1.218,1.278-0.407,3.075-1.626,1.795L106.881,146.104z"
			/>
		<path style="fill:#FCDABF;" d="M108.907,144.718l1.625-1.795l6.165,6.472c0.989,1.039-0.636,2.835-1.626,1.798L108.907,144.718z"
			/>
		<path style="fill:#FCDABF;" d="M109.943,142.305l1.624-1.796l4.465,4.69c1.476,1.548-0.147,3.344-1.622,1.796L109.943,142.305z"/>
		<path style="fill:#FCDABF;" d="M100.534,142.365l3.16,2.344l1.164,5.642c0,0,0.326,1.9-1.319,2.205l-3.249-8.08L100.534,142.365z"
			/>
	</g>
	<path style="fill:#E4B69D;" d="M113.806,153.411c0,0-1.471-1.384-2.909-2.8c-0.364-0.35-0.732-0.694-1.064-1.032
		c-0.326-0.342-0.605-0.686-0.846-0.978c-0.473-0.594-0.744-1.033-0.744-1.033l0.037-0.034c0,0,0.425,0.292,0.995,0.793
		c0.28,0.255,0.609,0.551,0.936,0.893c0.319,0.348,0.646,0.734,0.978,1.114c1.344,1.506,2.654,3.042,2.654,3.042L113.806,153.411z"
		/>
	<path style="fill:#E4B69D;" d="M115.454,151.672c0,0-1.517-1.433-3.002-2.897c-0.373-0.364-0.748-0.727-1.099-1.067
		c-0.336-0.354-0.626-0.708-0.876-1.01c-0.49-0.612-0.773-1.063-0.773-1.063l0.037-0.034c0,0,0.436,0.304,1.024,0.823
		c0.289,0.265,0.629,0.571,0.965,0.925c0.323,0.367,0.667,0.758,1.012,1.149c1.39,1.554,2.747,3.14,2.747,3.14L115.454,151.672z"/>
	<path style="fill:#E4B69D;" d="M115.505,148.181c0,0-1.374-1.282-2.715-2.596c-0.339-0.324-0.685-0.643-0.994-0.956
		c-0.304-0.318-0.561-0.64-0.784-0.912c-0.437-0.557-0.683-0.969-0.683-0.969l0.036-0.034c0,0,0.4,0.266,0.935,0.73
		c0.261,0.236,0.57,0.509,0.873,0.827c0.297,0.324,0.599,0.685,0.907,1.04c1.247,1.403,2.461,2.837,2.461,2.837L115.505,148.181z"/>
</g>
<g>
	<path style="fill:#DCA000;" d="M77.764,158.179c-0.191-6.763,0.12-9.167-1.717-14.435c-1.619-4.646-7.85-11.077-10.896-16.335
		l-10.983,5.342c-1.83,0.051-6.636,26.283-5.057,26.238c-1.579,0.045,4.703,25.962,6.533,25.909l11.266,4.712
		c2.724-5.382,8.576-12.129,9.927-16.824C78.39,167.391,77.957,164.983,77.764,158.179z"/>
	<polygon style="fill:#DCA000;" points="87.625,186.159 83.639,196.926 66.911,189.61 70.584,178.327 	"/>
	<polygon style="fill:#DCA000;" points="86.888,115.632 91.639,125.316 70.649,137.976 65.151,127.409 	"/>
	<polygon style="fill:#DCA000;" points="97.285,169.706 105.144,178.341 83.687,196.977 76.403,188.713 	"/>
	<polygon style="fill:#DCA000;" points="106.931,135.308 99.196,143.095 79.164,123.197 87.028,115.628 	"/>
</g>
<path style="fill:#FAD7B4;" d="M41.661,141.142c5.905-0.167,11.34,1.29,15.461,3.819c0.052,0.024,0.062,0.032,0.052,0.033
	c0.009-0.001,0.018,0.008,0.018,0.008c4.638,2.858,7.61,7.081,7.745,11.852c0.136,4.769-2.592,9.154-7.062,12.27
	c-0.009,0-0.008,0.009-0.017,0.009c0.009,0,0,0.009-0.051,0.035c-3.971,2.758-9.315,4.521-15.22,4.688
	c-12.604,0.357-17.856-6.826-18.112-15.857C24.219,148.968,29.056,141.498,41.661,141.142z"/>
<path style="fill:#FAD7B4;" d="M63.16,153.075c0.671,1.225,4.542,2.558,4.574,3.7c0.033,1.142-3.757,2.691-4.357,3.954
	L63.16,153.075z"/>
<path style="fill:#826A56;" d="M24.469,157.674c0.563,19.865,20.754,18.037,20.754,18.037c14.258-0.77,19.224-1.999,24.054-8.863
	c-1.989,0.331-4.238,0.505-7.286-1.566c-3.848-3.683-3.992-7.961-7.926-10.132c1.709,0.313,6.647-5.019,7.65-5.844
	c1.273-1.046,6.553-0.436,6.553-0.436c-6.037-9.558-17.323-10.793-27.113-10.236C41.155,138.634,23.951,139.367,24.469,157.674z"/>
<g>
	<path style="fill:#78604C;" d="M41.155,138.634c0,0-16.881,0.731-16.686,18.555c4.327-2.208,9.916-3.62,16.05-3.794
		c5.103-0.144,9.874,0.591,13.894,1.97c-0.116-0.072-0.226-0.148-0.347-0.215c1.709,0.313,6.647-5.019,7.65-5.844
		c1.273-1.046,6.553-0.436,6.553-0.436C62.231,139.312,50.945,138.077,41.155,138.634z"/>
</g>
<path style="fill:#FAD7B4;" d="M56.845,156.12c0,0-0.909-0.265-2.294-0.599c-0.69-0.178-1.502-0.35-2.373-0.545
	c-0.87-0.192-1.806-0.355-2.739-0.54c-0.47-0.073-0.939-0.146-1.401-0.218c-0.463-0.066-0.918-0.156-1.36-0.199
	c-0.886-0.091-1.713-0.19-2.425-0.249c-1.427-0.055-2.379-0.092-2.379-0.092s0.954-0.01,2.384-0.024
	c0.715,0.024,1.549,0.083,2.444,0.13c0.448,0.021,0.906,0.089,1.374,0.132c0.468,0.049,0.944,0.1,1.419,0.149
	c0.945,0.14,1.895,0.259,2.778,0.408c0.883,0.153,1.71,0.287,2.413,0.431c1.411,0.267,2.345,0.49,2.345,0.49L56.845,156.12z"/>
<g>
	<path style="fill:#505050;" d="M280.11,284.887c-1.122-0.008-2.026-0.924-2.019-2.046l0.234-34.209
		c0.004-0.539,0.221-1.055,0.604-1.433c0.384-0.379,0.902-0.589,1.441-0.586l22.385,0.155c1.122,0.008,2.026,0.924,2.019,2.046
		l-0.234,34.208c-0.004,0.539-0.221,1.055-0.604,1.433c-0.384,0.379-0.902,0.59-1.441,0.586L280.11,284.887z"/>
	
		<rect x="274.269" y="254.367" transform="matrix(0.0069 -1 1 0.0069 23.6132 555.429)" style="fill:#C5EFF7;" width="34.324" height="22.919"/>
	<polygon style="opacity:0.3;fill:#FFFFFF;" points="282.968,282.932 302.772,283.066 302.909,263.26 	"/>
	<polygon style="opacity:0.5;fill:#FFFFFF;" points="292.443,282.996 302.772,283.066 302.844,272.734 	"/>
</g>
<g>
	<g>
		<path style="fill:#FCDABF;" d="M290.526,243.605l-3.132-7.883h-0.002c-1.72-0.044-3.424,0.327-4.97,1.081l-4.381,2.137
			l2.071,9.744L290.526,243.605z"/>
		<path style="fill:#FCDABF;" d="M283.284,247.148l-0.895-2.251l-8.394,4.091c-2.104,1.027-1.208,3.276,0.896,2.25L283.284,247.148z
			"/>
		<path style="fill:#FCDABF;" d="M282.202,244.99l-0.896-2.252l-9.436,4.598c-1.587,0.773-0.691,3.023,0.897,2.25L282.202,244.99z"
			/>
		<path style="fill:#FCDABF;" d="M280.788,242.985l-0.896-2.251l-8.037,3.914c-1.288,0.629-0.393,2.879,0.898,2.252L280.788,242.985
			z"/>
		<path style="fill:#FCDABF;" d="M280.66,240.361l-0.896-2.25l-5.823,2.836c-1.922,0.938-1.028,3.187,0.896,2.251L280.66,240.361z"
			/>
		<path style="fill:#FCDABF;" d="M289.456,243.701l-3.778,1.096l-3.061,4.881c0,0-0.97,1.666,0.465,2.525l5.866-6.438
			L289.456,243.701z"/>
	</g>
	<path style="fill:#E4B69D;" d="M273.142,249.376c0,0,1.764-0.982,3.548-1.923c0.446-0.242,0.884-0.488,1.307-0.704
		c0.425-0.206,0.836-0.368,1.189-0.51c0.709-0.271,1.209-0.396,1.209-0.396l0.021,0.046c0,0-0.407,0.316-1.057,0.707
		c-0.329,0.189-0.71,0.415-1.134,0.622c-0.43,0.199-0.895,0.393-1.358,0.595c-1.842,0.824-3.703,1.609-3.703,1.609L273.142,249.376z
		"/>
	<path style="fill:#E4B69D;" d="M272.202,247.172c0,0,1.825-1.012,3.672-1.982c0.459-0.247,0.919-0.494,1.35-0.725
		c0.439-0.215,0.864-0.381,1.227-0.529c0.733-0.281,1.247-0.415,1.247-0.415l0.023,0.046c0,0-0.423,0.322-1.095,0.726
		c-0.341,0.194-0.734,0.426-1.175,0.641c-0.448,0.196-0.925,0.405-1.402,0.616c-1.901,0.854-3.823,1.668-3.823,1.668
		L272.202,247.172z"/>
	<path style="fill:#E4B69D;" d="M273.373,243.883c0,0,1.64-0.921,3.297-1.801c0.411-0.227,0.82-0.457,1.213-0.656
		c0.396-0.193,0.78-0.342,1.107-0.472c0.661-0.247,1.13-0.358,1.13-0.358l0.022,0.046c0,0-0.375,0.302-0.978,0.669
		c-0.304,0.179-0.659,0.391-1.054,0.582c-0.399,0.186-0.834,0.363-1.266,0.549c-1.715,0.764-3.451,1.486-3.451,1.486
		L273.373,243.883z"/>
</g>
<g>
	<g>
		<path style="fill:#FCDABF;" d="M292.268,286.973l-3.307,7.813h-0.009c-1.715,0.004-3.406-0.404-4.931-1.188l-4.341-2.235
			l2.29-9.697L292.268,286.973z"/>
		<path style="fill:#FCDABF;" d="M285.103,283.268l-0.945,2.229l-8.299-4.272c-2.082-1.073-1.135-3.305,0.943-2.23L285.103,283.268z
			"/>
		<path style="fill:#FCDABF;" d="M283.976,285.402l-0.946,2.23l-9.332-4.805c-1.568-0.809-0.624-3.039,0.946-2.228L283.976,285.402z
			"/>
		<path style="fill:#FCDABF;" d="M282.517,287.375l-0.945,2.23l-7.948-4.09c-1.275-0.658-0.33-2.889,0.944-2.232L282.517,287.375z"
			/>
		<path style="fill:#FCDABF;" d="M282.329,289.996l-0.946,2.229l-5.756-2.964c-1.902-0.98-0.957-3.208,0.942-2.229L282.329,289.996z
			"/>
		<path style="fill:#FCDABF;" d="M291.197,286.853l-3.754-1.179l-2.95-4.947c0,0-0.931-1.689,0.522-2.516l5.72,6.566
			L291.197,286.853z"/>
	</g>
	<path style="fill:#E4B69D;" d="M275.035,280.772c0,0,1.843,0.826,3.667,1.692c0.459,0.211,0.921,0.415,1.345,0.624
		c0.419,0.218,0.797,0.449,1.119,0.647c0.642,0.406,1.043,0.732,1.043,0.732l-0.024,0.043c0,0-0.497-0.136-1.199-0.422
		c-0.349-0.15-0.757-0.32-1.177-0.537c-0.417-0.224-0.853-0.48-1.29-0.732c-1.764-0.98-3.507-2.002-3.507-2.002L275.035,280.772z"/>
	<path style="fill:#E4B69D;" d="M274.049,282.955c0,0,1.904,0.855,3.786,1.752c0.474,0.221,0.946,0.441,1.389,0.646
		c0.435,0.224,0.824,0.465,1.158,0.666c0.664,0.418,1.08,0.752,1.08,0.752l-0.022,0.044c0-0.001-0.514-0.145-1.238-0.442
		c-0.359-0.155-0.78-0.333-1.216-0.556c-0.425-0.241-0.88-0.498-1.333-0.755c-1.824-1.011-3.627-2.065-3.627-2.064L274.049,282.955z
		"/>
	<path style="fill:#E4B69D;" d="M275.148,286.27c0,0.002,1.716,0.761,3.414,1.563c0.427,0.195,0.856,0.383,1.252,0.577
		c0.392,0.202,0.74,0.42,1.04,0.604c0.596,0.383,0.963,0.691,0.963,0.691l-0.022,0.045c0,0-0.466-0.121-1.123-0.383
		c-0.324-0.139-0.704-0.294-1.096-0.494c-0.387-0.209-0.79-0.45-1.196-0.685c-1.638-0.916-3.257-1.873-3.257-1.873L275.148,286.27z"
		/>
</g>
<g>
	<path style="fill:#1BBC9B;" d="M317.495,265.209c0,6.767-0.379,9.161,1.308,14.479c1.484,4.689,7.53,11.295,10.426,16.638
		l11.131-5.027c1.831,0.002,7.38-26.084,5.801-26.084c1.579,0-3.96-26.084-5.79-26.084l-11.128-5.031
		c-2.879,5.305-8.92,11.881-10.404,16.535C317.133,255.983,317.497,258.403,317.495,265.209z"/>
	<polygon style="fill:#1BBC9B;" points="308.435,236.961 312.726,226.313 329.242,234.1 325.246,245.275 	"/>
	<polygon style="fill:#1BBC9B;" points="312.425,307.821 304.108,300.321 323.79,285.707 329.228,296.326 	"/>
	<polygon style="fill:#1BBC9B;" points="289.539,245.832 285.807,234.768 312.938,226.313 316.294,236.806 	"/>
	<polygon style="fill:#1BBC9B;" points="287.471,295.619 292.222,285.725 317.673,297.945 312.425,307.821 	"/>
</g>
<path style="fill:#FAD7B4;" d="M353.101,283.268c-5.908-0.002-11.301-1.611-15.346-4.257c-0.052-0.026-0.061-0.036-0.053-0.035
	c-0.008-0.001-0.017-0.009-0.017-0.009c-4.557-2.988-7.406-7.295-7.405-12.067c0.001-4.772,2.853-9.077,7.409-12.064
	c0.01,0.001,0.008-0.007,0.018-0.007c-0.01,0,0.001-0.01,0.053-0.036c4.047-2.644,9.439-4.251,15.348-4.251
	c12.607,0.002,17.654,7.332,17.652,16.365C370.757,275.943,365.711,283.27,353.101,283.268z"/>
<path style="fill:#FAD7B4;" d="M331.95,270.728c-0.636-1.244-4.47-2.688-4.469-3.83c-0.001-1.143,3.835-2.582,4.469-3.826V270.728z"
	/>
<path style="fill:#524A46;" d="M344.793,272.174c-2.596-1.629-8.102-15.041-10.164-16.668c0,0,5.502-7.75,18.501-7.747
	c13,0.002,17.63,10.576,17.63,19.148c-0.002,8.574-3.505,18.605-18.069,18.603c-10.734-0.003-16.038-7.266-16.038-7.266
	C339.592,276.848,342.039,275.289,344.793,272.174z"/>
<path style="fill:#48403C;" d="M369.846,273.922c-3.496,1.049-7.339,1.631-11.372,1.63c-5.211-0.001-10.1-0.977-14.333-2.675
	c-2.494,2.645-4.782,4.083-7.488,5.367c0,0,5.304,7.263,16.038,7.266C363.335,285.511,368.068,280.152,369.846,273.922z"/>
<path style="fill:#5C5450;" d="M369.917,276.621c-3.105,0-5.625-4.35-5.624-9.715c0.002-5.365,2.52-9.713,5.626-9.713
	c3.107,0.001,5.625,4.35,5.624,9.715C375.542,272.273,373.022,276.621,369.917,276.621z"/>
<g>
	<path style="fill:#C8C8C8;" d="M155.936,122.76c0-1.105-0.896-2-2-2h-4.856c-0.946-5.325-5.588-9.372-11.186-9.372
		c-6.281,0-11.372,5.092-11.372,11.372c0,6.28,5.091,11.372,11.372,11.372c5.597,0,10.239-4.047,11.186-9.372h4.856
		C155.04,124.76,155.936,123.864,155.936,122.76z"/>
	<circle style="fill:#6A4600;" cx="137.895" cy="122.76" r="9.375"/>
</g>
<g>
	<g>
		<path style="fill:#FCDABF;" d="M233.158,338.465l-9.502-3.901c-0.029-2.085,0.443-4.146,1.378-6.008l2.647-5.274l11.771,2.643
			L233.158,338.465z"/>
		<path style="fill:#FCDABF;" d="M237.553,329.747l-2.713-1.114l5.072-10.105c1.271-2.532,3.984-1.42,2.712,1.114L237.553,329.747z"
			/>
		<path style="fill:#FCDABF;" d="M234.953,328.408l-2.713-1.113l5.701-11.36c0.958-1.91,3.672-0.797,2.713,1.116L234.953,328.408z"
			/>
		<path style="fill:#FCDABF;" d="M232.545,326.67l-2.713-1.113l4.855-9.676c0.778-1.552,3.492-0.438,2.714,1.115L232.545,326.67z"/>
		<path style="fill:#FCDABF;" d="M229.369,326.478l-2.713-1.113l3.52-7.008c1.16-2.316,3.872-1.203,2.711,1.112L229.369,326.478z"/>
		<path style="fill:#FCDABF;" d="M233.289,337.17l1.379-4.558l5.957-3.638c0,0,2.033-1.152,3.054,0.597l-7.882,7.013L233.289,337.17
			z"/>
	</g>
	<path style="fill:#E4B69D;" d="M240.443,317.523c0,0-0.998,2.232-2.035,4.444c-0.256,0.555-0.512,1.11-0.751,1.63
		c-0.257,0.512-0.528,0.974-0.757,1.371c-0.472,0.788-0.84,1.286-0.84,1.286l-0.045-0.023c0,0,0.18-0.593,0.529-1.441
		c0.182-0.422,0.391-0.915,0.646-1.427c0.275-0.503,0.566-1.039,0.859-1.576c1.152-2.153,2.348-4.286,2.348-4.286L240.443,317.523z"
		/>
	<path style="fill:#E4B69D;" d="M237.787,316.361c0,0-1.034,2.304-2.108,4.588c-0.265,0.574-0.528,1.148-0.777,1.684
		c-0.266,0.529-0.544,1.007-0.78,1.417c-0.484,0.816-0.863,1.332-0.863,1.332l-0.045-0.022c0,0,0.189-0.611,0.553-1.487
		c0.189-0.435,0.405-0.944,0.671-1.473c0.282-0.52,0.584-1.074,0.886-1.628c1.189-2.228,2.42-4.433,2.42-4.433L237.787,316.361z"/>
	<path style="fill:#E4B69D;" d="M233.786,317.732c0,0-0.921,2.081-1.882,4.14c-0.235,0.517-0.472,1.034-0.693,1.518
		c-0.238,0.476-0.493,0.904-0.708,1.273c-0.442,0.731-0.792,1.19-0.792,1.19l-0.045-0.021c0,0,0.161-0.555,0.482-1.347
		c0.167-0.392,0.358-0.853,0.598-1.329c0.256-0.467,0.529-0.966,0.801-1.464c1.078-2.001,2.194-3.982,2.194-3.982L233.786,317.732z"
		/>
</g>
<g>
	<g>
		<path style="fill:#FCDABF;" d="M274.791,353.739l7.411-7.114c-0.736-1.949-1.931-3.692-3.482-5.082l-4.397-3.939l-9.983,6.773
			L274.791,353.739z"/>
		<path style="fill:#FCDABF;" d="M267.507,347.239l2.116-2.032l-8.423-7.542c-2.112-1.892-4.228,0.14-2.116,2.03L267.507,347.239z"
			/>
		<path style="fill:#FCDABF;" d="M269.435,345.041l2.115-2.031l-9.467-8.478c-1.592-1.427-3.709,0.604-2.115,2.031L269.435,345.041z
			"/>
		<path style="fill:#FCDABF;" d="M271.039,342.54l2.115-2.031l-8.064-7.222c-1.293-1.158-3.409,0.873-2.116,2.031L271.039,342.54z"
			/>
		<path style="fill:#FCDABF;" d="M273.923,341.198l2.116-2.031l-5.842-5.23c-1.93-1.729-4.045,0.302-2.115,2.029L273.923,341.198z"
			/>
		<path style="fill:#FCDABF;" d="M274.195,352.582l-2.955-3.736l-6.874-1.202c0,0-2.313-0.326-2.622,1.677l9.902,3.635
			L274.195,352.582z"/>
	</g>
	<path style="fill:#E4B69D;" d="M260.371,336.889c0,0.001,1.893,1.548,3.756,3.129c0.469,0.393,0.937,0.784,1.377,1.152
		c0.426,0.382,0.801,0.764,1.125,1.09c0.637,0.66,1.021,1.147,1.021,1.147l-0.033,0.038c0,0-0.526-0.329-1.254-0.89
		c-0.358-0.286-0.78-0.616-1.207-0.997c-0.413-0.396-0.854-0.819-1.295-1.241c-1.777-1.679-3.523-3.391-3.523-3.39L260.371,336.889z
		"/>
	<path style="fill:#E4B69D;" d="M262.416,334.833c0,0,1.954,1.602,3.877,3.236c0.484,0.405,0.968,0.811,1.421,1.191
		c0.441,0.395,0.829,0.788,1.163,1.124c0.66,0.681,1.059,1.182,1.059,1.181l-0.033,0.038c-0.001-0.001-0.54-0.343-1.291-0.924
		c-0.37-0.295-0.806-0.638-1.245-1.031c-0.428-0.409-0.885-0.846-1.341-1.281c-1.837-1.731-3.643-3.496-3.644-3.496L262.416,334.833
		z"/>
	<path style="fill:#E4B69D;" d="M266.643,334.643c0,0,1.766,1.434,3.5,2.901c0.438,0.363,0.873,0.728,1.283,1.068
		c0.396,0.354,0.742,0.713,1.042,1.017c0.589,0.619,0.941,1.076,0.941,1.076l-0.033,0.038c0.001,0-0.493-0.3-1.173-0.818
		c-0.335-0.265-0.729-0.57-1.125-0.925c-0.383-0.369-0.793-0.764-1.203-1.158c-1.648-1.564-3.266-3.162-3.266-3.161L266.643,334.643
		z"/>
</g>
<g>
	<path style="fill:#DCA000;" d="M259.19,375.189c-13.66,1.364-22.327,3.879-34.606,10.565l6.522,11.986
		c0.004,1.974,28.142,7.9,28.138,6.197c0.004,1.703,28.117-4.329,28.113-6.303l6.477-12.012
		C281.531,378.982,272.855,376.501,259.19,375.189z"/>
	<polygon style="fill:#DCA000;" points="288.196,362.628 301.116,367.804 293.834,385.623 280.697,381.345 	"/>
	<polygon style="fill:#DCA000;" points="213.588,361.987 226.24,356.19 237.209,380.124 224.584,385.754 	"/>
	<polygon style="fill:#DCA000;" points="271.161,353.188 281.697,344.096 301.116,367.804 291.053,376.236 	"/>
	<polygon style="fill:#DCA000;" points="222.281,333.088 235.6,337.132 226.753,366.262 213.588,361.987 	"/>
</g>
<path style="fill:#FCDABF;" d="M240.246,405.349c-0.013-6.86,1.846-13.124,4.907-17.829c0.03-0.06,0.04-0.069,0.04-0.06
	c0-0.01,0.01-0.02,0.01-0.02c3.461-5.299,8.455-8.617,13.993-8.628c5.54-0.01,10.547,3.29,14.026,8.575c0,0.01,0.01,0.009,0.01,0.02
	c0-0.011,0.01-0.001,0.041,0.06c3.078,4.694,4.959,10.949,4.973,17.811c0.027,14.64-8.471,20.516-18.961,20.535
	C248.795,425.833,240.273,419.988,240.246,405.349z"/>
<path style="fill:#FCDABF;" d="M254.756,380.76c1.443-0.741,3.109-5.194,4.435-5.197c1.327-0.002,3.009,4.445,4.456,5.18
	L254.756,380.76z"/>
<path style="fill:#826A56;" d="M240.246,405.349c-0.013-6.86,1.846-13.124,4.907-17.829c0.03-0.06,0.04-0.069,0.04-0.06
	c-0.209,0.46,0.32,5.319,2.779,5.314c2.5-0.005,3.049-6.006,11.238-6.022c8.191-0.016,8.762,5.983,11.262,5.979
	c2.46-0.006,2.971-4.865,2.76-5.325c0-0.011,0.01-0.001,0.041,0.06c3.078,4.694,4.959,10.949,4.973,17.811
	c0.027,14.64-8.471,20.516-18.961,20.535C248.795,425.833,240.273,419.988,240.246,405.349z"/>
<path style="fill:#78604C;" d="M247.973,392.774c-2.459,0.005-2.988-4.855-2.779-5.314c0-0.01-0.01-0.001-0.04,0.06
	c-3.061,4.705-4.92,10.969-4.907,17.829c0.027,14.64,8.549,20.484,19.039,20.464l-0.074-39.06
	C251.021,386.769,250.473,392.77,247.973,392.774z"/>
<g>
	
		<rect x="164.532" y="256.756" transform="matrix(0.8122 -0.5834 0.5834 0.8122 -120.8972 146.4186)" style="fill:#787878;" width="4.82" height="8.417"/>
	<path style="fill:#C8C8C8;" d="M166.666,264.712l3.124-3.913l0.611-0.763c0.094-0.121,0.23-0.203,0.384-0.234l2.413-0.495
		c0.365-0.076,0.662-0.327,0.799-0.67c0.138-0.349,0.088-0.738-0.129-1.039l-1.547-2.152c-0.219-0.305-0.568-0.473-0.939-0.456
		c-0.375,0.02-0.707,0.221-0.893,0.546l-1.239,2.129c-0.078,0.136-0.202,0.235-0.344,0.29l-0.918,0.335l-4.708,1.709l0.262,0.364
		l4.705-1.712l0.806-0.292c0.24-0.087,0.441-0.259,0.57-0.478l1.239-2.129c0.115-0.194,0.315-0.316,0.539-0.329
		c0.226-0.013,0.44,0.094,0.571,0.275l1.546,2.152c0.131,0.183,0.161,0.416,0.079,0.629c-0.084,0.208-0.264,0.358-0.484,0.405
		l-2.416,0.492c-0.248,0.052-0.473,0.191-0.631,0.391l-0.535,0.671l-3.123,3.913L166.666,264.712z"/>
</g>
<rect x="191.441" y="232.505" transform="matrix(0.8884 -0.459 0.459 0.8884 -89.8414 118.925)" style="fill:#FAFAFA;" width="16.533" height="23.521"/>
<rect x="196.63" y="235.999" transform="matrix(0.3318 -0.9434 0.9434 0.3318 -91.1774 359.8139)" style="fill:#E6E6E6;" width="23.521" height="16.533"/>
<rect x="207.199" y="244.185" transform="matrix(0.8494 -0.5278 0.5278 0.8494 -100.2628 153.5979)" style="fill:#FAFAFA;" width="23.52" height="16.533"/>
<g>
	
		<rect x="230.171" y="158.159" transform="matrix(0.1086 -0.9941 0.9941 0.1086 45.9173 375.9397)" style="fill:#787878;" width="4.821" height="8.416"/>
	<path style="fill:#C8C8C8;" d="M229.979,159.658l0.823,4.939l0.159,0.964c0.026,0.15-0.002,0.307-0.082,0.442l-1.244,2.127
		c-0.188,0.322-0.199,0.711-0.035,1.042c0.166,0.334,0.49,0.558,0.858,0.598l2.635,0.288c0.373,0.041,0.733-0.107,0.969-0.395
		c0.235-0.292,0.308-0.673,0.19-1.029l-0.756-2.345c-0.048-0.149-0.04-0.308,0.015-0.449l0.364-0.907l1.874-4.645l-0.446-0.049
		l-1.87,4.645l-0.32,0.795c-0.097,0.236-0.104,0.501-0.025,0.743l0.755,2.345c0.069,0.215,0.026,0.446-0.114,0.621
		c-0.142,0.176-0.363,0.265-0.587,0.24l-2.635-0.288c-0.223-0.024-0.417-0.158-0.521-0.361c-0.1-0.201-0.091-0.435,0.021-0.631
		l1.248-2.126c0.128-0.22,0.175-0.48,0.132-0.731l-0.143-0.846l-0.824-4.939L229.979,159.658z"/>
</g>
<g>
	
		<rect x="199.202" y="153.21" transform="matrix(0.8706 -0.492 0.492 0.8706 -51.3616 119.5728)" style="fill:#787878;" width="4.82" height="8.416"/>
	<path style="fill:#C8C8C8;" d="M202.292,153.723l-3.531,3.551l-0.689,0.692c-0.106,0.11-0.251,0.177-0.406,0.191l-2.454,0.23
		c-0.371,0.036-0.693,0.253-0.866,0.58c-0.174,0.331-0.167,0.725,0.016,1.047l1.304,2.308c0.184,0.326,0.515,0.531,0.886,0.555
		c0.374,0.021,0.726-0.143,0.947-0.446l1.462-1.982c0.093-0.126,0.227-0.212,0.373-0.251l0.95-0.233l4.865-1.188l-0.221-0.391
		l-4.862,1.191l-0.834,0.203c-0.248,0.061-0.467,0.21-0.618,0.414l-1.463,1.982c-0.136,0.181-0.348,0.28-0.571,0.269
		c-0.226-0.012-0.428-0.141-0.538-0.335l-1.304-2.308c-0.109-0.196-0.114-0.431-0.011-0.634c0.105-0.198,0.301-0.328,0.525-0.351
		l2.455-0.227c0.253-0.024,0.491-0.139,0.67-0.32l0.604-0.609l3.53-3.551L202.292,153.723z"/>
</g>
<g>
	<path style="fill:#C8C8C8;" d="M278.621,202.237l-3.357,3.51c-4.502-2.999-10.636-2.442-14.504,1.602
		c-4.343,4.539-4.183,11.737,0.354,16.078c4.538,4.342,11.736,4.184,16.079-0.355c3.869-4.043,4.154-10.195,0.961-14.561
		l3.356-3.508c0.764-0.797,0.736-2.064-0.063-2.828C280.65,201.412,279.385,201.439,278.621,202.237z"/>
	<path style="fill:#6A4600;" d="M275.457,208.436c3.741,3.58,3.872,9.514,0.293,13.255c-3.579,3.741-9.514,3.872-13.255,0.293
		c-3.741-3.58-3.872-9.514-0.293-13.255C265.782,204.988,271.717,204.857,275.457,208.436z"/>
</g>
<g>
	
		<rect x="160.197" y="313.56" transform="matrix(0.0065 -1 1 0.0065 -148.955 509.3133)" style="fill:#FFFFFF;" width="43.304" height="32.125"/>
	
		<rect x="179.313" y="299.264" transform="matrix(0.0065 -1 1 0.0065 -132.2366 492.9227)" style="fill:#DCA000;" width="5.292" height="27.499"/>
	<polygon style="fill:#C8C8C8;" points="195.582,332.396 195.581,332.645 167.956,332.464 167.958,332.339 168.052,317.929 
		168.301,317.931 168.208,332.216 	"/>
	<polygon style="fill:#FF0000;" points="194.45,319.442 194.414,319.69 192.479,319.404 188.217,325.065 187.545,323.505 
		185.388,324.255 184.593,325.133 182.41,324.718 180.498,328.898 177.884,326.087 173.59,325.309 170.06,330.912 169.849,330.778 
		173.467,325.032 178.01,325.856 180.426,328.453 182.264,324.435 184.502,324.86 185.275,324.029 187.682,323.191 188.276,324.57 
		192.369,319.135 	"/>
	<polygon style="fill:#008DA4;" points="194.457,323.792 190.927,325.39 188.515,327.521 188.497,330.291 183.719,328.692 
		181.772,328.011 180.561,325.657 179.564,325.53 178.789,324.315 176.226,327.343 175.172,328.774 173.867,328.6 172.359,329.82 
		169.928,329.011 170.007,328.773 172.309,329.54 173.792,328.337 175.059,328.507 176.029,327.188 178.817,323.895 
		179.712,325.297 180.723,325.427 181.95,327.809 183.8,328.456 188.249,329.944 188.265,327.408 188.308,327.371 190.807,325.169 
		194.354,323.564 	"/>
	
		<rect x="180.994" y="320.807" transform="matrix(0.0065 -1 1 0.0065 -153.9124 514.197)" style="fill:#DCDCDC;" width="1.648" height="27.5"/>
	
		<rect x="172.179" y="316.318" transform="matrix(0.0066 -1 1 0.0066 -146.9355 492.2643)" style="fill:#DCDCDC;" width="4.233" height="7.538"/>
	<g>
		
			<rect x="181.221" y="323.493" transform="matrix(0.0065 -1 1 0.0065 -156.6166 516.8481)" style="fill:#DCDCDC;" width="1.16" height="27.5"/>
		
			<rect x="181.208" y="325.397" transform="matrix(0.0065 -1 1 0.0065 -158.5392 518.7144)" style="fill:#DCDCDC;" width="1.16" height="27.5"/>
		
			<rect x="181.196" y="327.299" transform="matrix(0.0065 -1 1 0.0065 -160.4473 520.6049)" style="fill:#DCDCDC;" width="1.159" height="27.501"/>
		
			<rect x="181.183" y="329.202" transform="matrix(0.0065 -1 1 0.0065 -162.3699 522.4699)" style="fill:#DCDCDC;" width="1.16" height="27.5"/>
		
			<rect x="181.172" y="331.104" transform="matrix(0.0065 -1 1 0.0065 -164.2772 524.3613)" style="fill:#DCDCDC;" width="1.159" height="27.501"/>
		
			<rect x="181.159" y="333.008" transform="matrix(0.0065 -1 1 0.0065 -166.1926 526.2401)" style="fill:#DCDCDC;" width="1.161" height="27.501"/>
		
			<rect x="181.146" y="334.911" transform="matrix(0.0065 -1 1 0.0065 -168.1142 528.1045)" style="fill:#DCDCDC;" width="1.16" height="27.5"/>
	</g>
</g>
<g>
	<path style="fill:#C8C8C8;" d="M154.339,300.315l2.994-3.822c4.776,2.538,10.823,1.379,14.274-3.028
		c3.873-4.945,3.003-12.093-1.941-15.965c-4.945-3.873-12.092-3.003-15.965,1.942c-3.45,4.406-3.127,10.557,0.482,14.584
		l-2.994,3.823c-0.682,0.869-0.529,2.127,0.341,2.808C152.4,301.337,153.656,301.185,154.339,300.315z"/>
	<path style="fill:#6A4600;" d="M156.873,293.833c-4.077-3.192-4.792-9.085-1.601-13.161c3.192-4.075,9.085-4.794,13.162-1.6
		c4.076,3.192,4.792,9.084,1.601,13.16C166.843,296.309,160.951,297.026,156.873,293.833z"/>
</g>
<rect x="105.314" y="87.706" transform="matrix(0.8641 -0.5033 0.5033 0.8641 -32.3934 71.9615)" style="fill:#FAFAFA;" width="23.521" height="16.533"/>
<rect x="102.846" y="87.337" transform="matrix(0.8114 -0.5845 0.5845 0.8114 -36.9666 83.6412)" style="fill:#E6E6E6;" width="16.533" height="23.521"/>
<rect x="100.455" y="95.911" transform="matrix(0.5619 -0.8272 0.8272 0.5619 -41.4358 137.101)" style="fill:#FAFAFA;" width="16.533" height="23.52"/>
<g>
	
		<rect x="259.11" y="153.253" transform="matrix(0.9488 -0.316 0.316 0.9488 -39.8126 90.9934)" style="fill:#D54A00;" width="3.165" height="30.029"/>
	
		<rect x="259.981" y="153.252" transform="matrix(0.9488 -0.316 0.316 0.9488 -39.8111 90.9884)" style="fill:#E66400;" width="1.424" height="30.031"/>
	<polygon style="fill:#FAE1B4;" points="257.45,153.522 253.738,147.385 254.447,154.523 	"/>
	<polygon style="fill:#FAF0C8;" points="256.624,153.796 253.738,147.385 255.273,154.247 	"/>
	<polygon style="fill:#D54A00;" points="253.738,147.385 254.803,149.143 253.94,149.429 	"/>
</g>
<g>
	<path style="fill:#505050;" d="M146.06,205.253c-0.402-0.278-0.677-0.704-0.765-1.185c-0.088-0.48,0.018-0.977,0.296-1.378
		l6.948-10.064c0.578-0.837,1.726-1.047,2.563-0.469l20.053,13.844c0.837,0.578,1.047,1.726,0.469,2.563l-6.947,10.063
		c-0.578,0.837-1.726,1.047-2.563,0.469L146.06,205.253z"/>
	
		<rect x="154.785" y="195.191" transform="matrix(0.5681 -0.8229 0.8229 0.5681 -99.9517 221.7635)" style="fill:#C5EFF7;" width="13.049" height="21.84"/>
	
		<rect x="147.778" y="197.773" transform="matrix(0.568 -0.823 0.823 0.568 -98.501 209.8628)" style="fill:#787878;" width="5.781" height="1.984"/>
	<polygon style="opacity:0.5;fill:#FFFFFF;" points="158.411,212.038 166.59,217.685 172.238,209.505 	"/>
</g>
<g>
	
		<rect x="280.329" y="296.043" transform="matrix(0.6375 -0.7704 0.7704 0.6375 -137.4622 329.9537)" style="fill:#D54A00;" width="3.165" height="30.03"/>
	
		<rect x="281.2" y="296.044" transform="matrix(0.6374 -0.7705 0.7705 0.6374 -137.4599 330.0132)" style="fill:#E66400;" width="1.424" height="30.03"/>
	<polygon style="fill:#FAE1B4;" points="271.352,300.267 264.952,297.028 269.334,302.705 	"/>
	<polygon style="fill:#FAF0C8;" points="270.796,300.939 264.952,297.028 269.889,302.037 	"/>
	<polygon style="fill:#D54A00;" points="264.952,297.028 266.789,297.956 266.206,298.654 	"/>
</g>
<g>
	<path style="fill:#505050;" d="M167.514,169.684l-1.29,0.016c0,0-0.252-1.432-0.681-3.824c-0.055-0.303-0.105-0.614-0.169-0.938
		l-0.042-0.241l-0.05-0.198c-0.031-0.136-0.064-0.268-0.124-0.391l-0.075-0.193c-0.025-0.061-0.06-0.107-0.088-0.164l-0.086-0.161
		l-0.153-0.221l-0.081-0.114l-0.029-0.035c0,0,0.001-0.007-0.004-0.012l-0.018-0.018l-0.176-0.213
		c-0.121-0.146-0.233-0.292-0.355-0.439c-0.898-1.1-1.853-2.257-2.813-3.433c-0.069-0.081-0.139-0.171-0.208-0.253
		c-0.202-0.244-0.404-0.491-0.605-0.737c-2.692-3.293-5.303-6.482-6.653-8.13c-0.374-0.463-0.653-0.803-0.811-0.992l0.302-0.311
		c0.746-0.768,1.853-0.961,2.783-0.582c0.775,1.08,2.035,2.861,3.496,4.914c0.758,1.07,1.572,2.211,2.399,3.377
		c0.268,0.376,0.539,0.76,0.807,1.142c0.004,0.003,0.004,0.003,0.008,0.007c0.937,1.323,1.876,2.643,2.757,3.885
		c0.107,0.152,0.217,0.309,0.327,0.459l0.162,0.229l0.048,0.076l0.023,0.027l0.032,0.061l0.074,0.115l0.145,0.23l0.155,0.322
		c0.048,0.104,0.105,0.215,0.145,0.32l0.094,0.305c0.071,0.197,0.11,0.398,0.14,0.599l0.052,0.298l0.025,0.245
		c0.036,0.327,0.073,0.64,0.106,0.942C167.343,168.071,167.514,169.684,167.514,169.684z"/>
	<path style="fill:#505050;" d="M152.238,154.819l0.019,1.29c0,0,1.439,0.213,3.841,0.576c0.305,0.047,0.619,0.089,0.943,0.143
		l0.241,0.035l0.199,0.045c0.136,0.026,0.271,0.057,0.394,0.113l0.196,0.069c0.061,0.023,0.108,0.056,0.166,0.085l0.163,0.08
		l0.226,0.146l0.116,0.079l0.037,0.028c0,0,0.006,0,0.009,0.003l0.02,0.019l0.218,0.17c0.149,0.116,0.298,0.227,0.448,0.342
		c1.124,0.867,2.308,1.791,3.509,2.719c0.083,0.067,0.174,0.135,0.258,0.201c0.251,0.195,0.503,0.389,0.753,0.584
		c3.367,2.601,6.625,5.124,8.31,6.43c0.474,0.361,0.823,0.629,1.015,0.781l0.301-0.311c0.747-0.766,0.912-1.877,0.506-2.797
		c-1.102-0.746-2.915-1.955-5.008-3.359c-1.091-0.727-2.254-1.512-3.442-2.306c-0.382-0.257-0.774-0.519-1.163-0.776
		c-0.004-0.003-0.004-0.003-0.007-0.006c-1.349-0.9-2.694-1.804-3.958-2.65c-0.157-0.104-0.317-0.209-0.47-0.314l-0.231-0.155
		l-0.077-0.046l-0.029-0.021l-0.061-0.031l-0.117-0.07l-0.234-0.137l-0.327-0.146c-0.105-0.047-0.218-0.098-0.323-0.137
		l-0.307-0.085c-0.2-0.065-0.402-0.1-0.604-0.126l-0.299-0.043l-0.246-0.018c-0.328-0.027-0.641-0.056-0.944-0.081
		C153.852,154.947,152.238,154.819,152.238,154.819z"/>
	<path style="fill:#3C3C3C;" d="M162.789,157.532c0.797-1.009,0.715-2.48-0.227-3.395l-5.658-5.504
		c-0.241-0.236-0.521-0.416-0.817-0.533c-0.93-0.379-2.037-0.186-2.783,0.582l-2.485,2.555c-0.981,1.007-0.957,2.62,0.049,3.6
		l5.658,5.505c1.006,0.979,2.62,0.958,3.599-0.05l2.486-2.555C162.676,157.67,162.736,157.602,162.789,157.532z M159.214,159.403
		c-0.49,0.503-1.297,0.515-1.801,0.024l-5.658-5.504c-0.503-0.489-0.513-1.296-0.023-1.8l2.485-2.555
		c0.487-0.5,1.297-0.515,1.799-0.026l5.658,5.506c0.369,0.357,0.469,0.89,0.307,1.342c-0.056,0.167-0.151,0.322-0.283,0.457
		L159.214,159.403z"/>
	<path style="fill:#3C3C3C;" d="M172.683,165.761c0.503,0.49,0.514,1.298,0.025,1.802l-2.486,2.555
		c-0.49,0.503-1.297,0.514-1.801,0.022l-5.657-5.503c-0.504-0.49-0.514-1.297-0.024-1.8l2.485-2.556
		c0.49-0.503,1.297-0.514,1.8-0.025L172.683,165.761L172.683,165.761z M173.572,164.849l-5.658-5.505
		c-1.008-0.98-2.621-0.957-3.601,0.051l-2.486,2.555c-0.98,1.008-0.958,2.619,0.05,3.6l5.658,5.506
		c1.008,0.979,2.62,0.957,3.6-0.051l2.486-2.555C174.601,167.441,174.579,165.829,173.572,164.849L173.572,164.849z"/>
	
		<rect x="162.639" y="156.947" transform="matrix(0.6973 -0.7167 0.7167 0.6973 -64.4249 165.2048)" style="fill:#3C3C3C;" width="1.528" height="3.878"/>
	<path style="opacity:0.5;fill:#FFFFFF;" d="M159.214,159.403c-0.49,0.503-1.297,0.515-1.801,0.024l-5.658-5.504
		c-0.503-0.489-0.513-1.296-0.023-1.8l2.485-2.555c0.487-0.5,1.297-0.515,1.799-0.026l5.658,5.506
		c0.369,0.357,0.469,0.89,0.307,1.342c-0.056,0.167-0.151,0.322-0.283,0.457L159.214,159.403z"/>
	<path style="opacity:0.5;fill:#FFFFFF;" d="M170.224,170.115c-0.49,0.504-1.297,0.515-1.8,0.024l-5.658-5.505
		c-0.503-0.49-0.514-1.296-0.024-1.799l2.485-2.555c0.486-0.502,1.296-0.517,1.8-0.025l5.657,5.504
		c0.369,0.359,0.469,0.891,0.307,1.342c-0.055,0.168-0.15,0.324-0.281,0.459L170.224,170.115z"/>
	<path style="opacity:0.5;fill:#FFFFFF;" d="M161.675,155.049l-3.501-3.406l0.112,8.144c0.337,0.003,0.675-0.123,0.928-0.383
		l2.485-2.556c0.131-0.135,0.227-0.29,0.283-0.457C162.144,155.939,162.044,155.406,161.675,155.049z"/>
	<path style="opacity:0.5;fill:#FFFFFF;" d="M172.684,165.76l-3.499-3.404l0.111,8.143c0.336,0.003,0.675-0.122,0.928-0.383
		l2.486-2.555c0.131-0.135,0.226-0.291,0.282-0.458C173.154,166.65,173.053,166.119,172.684,165.76z"/>
</g>
<path style="fill:#005078;" d="M153.365,376.957c-6.766,0-9.16-0.379-14.479,1.308c-4.689,1.484-11.295,7.53-16.639,10.426
	l5.027,11.131c-0.001,1.831,26.084,7.38,26.084,5.801c0,1.579,26.085-3.96,26.085-5.79l5.031-11.128
	c-5.305-2.879-11.881-8.92-16.536-10.404C162.592,376.595,160.172,376.959,153.365,376.957z"/>
<polygon style="fill:#005078;" points="181.614,367.897 192.262,372.188 184.476,388.704 173.3,384.708 "/>
<g>
	<g>
		<path style="fill:#FCDABF;" d="M183.309,346.069l8.475-0.32c0.617-1.607,0.837-3.339,0.642-5.05l-0.551-4.84l-9.876-1.302
			L183.309,346.069z"/>
		<path style="fill:#FCDABF;" d="M182.389,338.06l2.42-0.093l-1.052-9.277c-0.266-2.327-2.685-2.233-2.421,0.093L182.389,338.06z"/>
		<path style="fill:#FCDABF;" d="M184.784,337.76l2.421-0.092l-1.182-10.43c-0.198-1.754-2.619-1.662-2.42,0.094L184.784,337.76z"/>
		<path style="fill:#FCDABF;" d="M187.145,337.097l2.422-0.093l-1.006-8.883c-0.162-1.424-2.581-1.331-2.422,0.094L187.145,337.097z
			"/>
		<path style="fill:#FCDABF;" d="M189.662,337.853l2.421-0.093l-0.729-6.437c-0.241-2.125-2.66-2.034-2.421,0.092L189.662,337.853z"
			/>
		<path style="fill:#FCDABF;" d="M183.577,345.028l0.229-3.927l-3.58-4.516c0,0-1.247-1.471-2.536-0.405l4.11,7.68L183.577,345.028z
			"/>
	</g>
	<path style="fill:#E4B69D;" d="M183.676,327.756c0,0,0.336,1.99,0.628,3.986c0.078,0.501,0.165,0.996,0.226,1.466
		c0.053,0.47,0.069,0.911,0.084,1.291c0.02,0.759-0.03,1.272-0.03,1.272l-0.049,0.006c0,0-0.163-0.49-0.314-1.232
		c-0.068-0.374-0.155-0.809-0.208-1.276c-0.044-0.472-0.071-0.976-0.106-1.48c-0.163-2.012-0.281-4.028-0.281-4.028L183.676,327.756
		z"/>
	<path style="fill:#E4B69D;" d="M186.068,327.606c0,0,0.344,2.058,0.642,4.123c0.079,0.515,0.158,1.03,0.232,1.514
		c0.055,0.485,0.07,0.942,0.089,1.333c0.02,0.785-0.026,1.313-0.026,1.313l-0.05,0.008c0,0-0.163-0.507-0.319-1.275
		c-0.069-0.386-0.156-0.834-0.212-1.321c-0.035-0.487-0.072-1.006-0.111-1.526c-0.17-2.078-0.295-4.161-0.295-4.161L186.068,327.606
		z"/>
	<path style="fill:#E4B69D;" d="M188.777,329.809c0,0,0.319,1.853,0.596,3.709c0.076,0.463,0.157,0.926,0.214,1.362
		c0.05,0.438,0.061,0.85,0.074,1.201c0.012,0.705-0.04,1.185-0.04,1.185l-0.051,0.006c0,0-0.158-0.454-0.303-1.145
		c-0.068-0.347-0.148-0.752-0.197-1.188c-0.042-0.439-0.064-0.908-0.095-1.377c-0.147-1.871-0.248-3.749-0.248-3.749
		L188.777,329.809z"/>
</g>
<g>
	<g>
		<path style="fill:#FCDABF;" d="M131.602,351.729l-7.811-3.307v-0.007c-0.004-1.717,0.403-3.409,1.189-4.935l2.234-4.339
			l9.697,2.29L131.602,351.729z"/>
		<path style="fill:#FCDABF;" d="M135.307,344.565l-2.229-0.945l4.273-8.299c1.073-2.082,3.304-1.135,2.23,0.943L135.307,344.565z"
			/>
		<path style="fill:#FCDABF;" d="M133.172,343.438l-2.23-0.946l4.805-9.332c0.809-1.568,3.039-0.624,2.23,0.946L133.172,343.438z"/>
		<path style="fill:#FCDABF;" d="M131.199,341.978l-2.23-0.945l4.091-7.948c0.657-1.275,2.888-0.33,2.232,0.944L131.199,341.978z"/>
		<path style="fill:#FCDABF;" d="M128.579,341.791l-2.23-0.946l2.965-5.756c0.98-1.902,3.207-0.957,2.229,0.942L128.579,341.791z"/>
		<path style="fill:#FCDABF;" d="M131.723,350.659l1.178-3.754l4.947-2.95c0,0,1.689-0.931,2.517,0.522l-6.567,5.72L131.723,350.659
			z"/>
	</g>
	<path style="fill:#E4B69D;" d="M137.803,334.497c0,0-0.825,1.843-1.691,3.667c-0.211,0.459-0.416,0.921-0.624,1.345
		c-0.218,0.419-0.45,0.797-0.647,1.119c-0.406,0.642-0.731,1.043-0.731,1.043l-0.044-0.024c0,0,0.137-0.497,0.422-1.199
		c0.15-0.349,0.321-0.757,0.537-1.177c0.225-0.417,0.482-0.853,0.732-1.29c0.98-1.764,2.003-3.507,2.003-3.507L137.803,334.497z"/>
	<path style="fill:#E4B69D;" d="M135.619,333.511c0,0-0.855,1.904-1.752,3.786c-0.22,0.474-0.441,0.946-0.646,1.389
		c-0.223,0.435-0.464,0.824-0.666,1.158c-0.418,0.664-0.751,1.08-0.751,1.08l-0.044-0.022c0,0,0.145-0.514,0.441-1.238
		c0.156-0.359,0.334-0.78,0.557-1.216c0.24-0.425,0.498-0.88,0.754-1.333c1.012-1.824,2.064-3.627,2.064-3.627L135.619,333.511z"/>
	<path style="fill:#E4B69D;" d="M132.305,334.61c-0.001,0-0.76,1.716-1.563,3.414c-0.195,0.427-0.383,0.856-0.576,1.252
		c-0.202,0.392-0.42,0.74-0.605,1.04c-0.382,0.596-0.691,0.963-0.691,0.963l-0.045-0.022c0,0,0.121-0.466,0.384-1.123
		c0.138-0.324,0.294-0.704,0.494-1.096c0.209-0.387,0.45-0.79,0.685-1.196c0.916-1.638,1.873-3.257,1.873-3.257L132.305,334.61z"/>
</g>
<g>
	<path style="fill:#505050;" d="M301.192,159.944c0.482-0.083,0.977,0.03,1.376,0.312c0.398,0.282,0.669,0.712,0.751,1.193
		l2.065,12.054c0.171,1.003-0.502,1.955-1.505,2.127l-24.019,4.114c-0.482,0.083-0.977-0.03-1.376-0.312
		c-0.398-0.282-0.669-0.711-0.751-1.193l-2.066-12.054c-0.171-1.003,0.503-1.955,1.505-2.127L301.192,159.944z"/>
	
		<rect x="278.766" y="163.464" transform="matrix(0.9857 -0.1688 0.1688 0.9857 -24.5314 51.3224)" style="fill:#C5EFF7;" width="21.84" height="13.05"/>
	
		<rect x="301.438" y="164.915" transform="matrix(0.9856 -0.1689 0.1689 0.9856 -23.9985 53.4947)" style="fill:#787878;" width="1.985" height="5.781"/>
	<polygon style="opacity:0.5;fill:#FFFFFF;" points="287.616,163.724 277.82,165.402 279.499,175.2 	"/>
</g>
<polygon style="fill:#005078;" points="110.754,371.887 118.254,363.57 132.867,383.252 122.248,388.69 "/>
<polygon style="fill:#005078;" points="181.54,344.396 193.215,344.571 192.125,372.97 181.113,372.628 "/>
<polygon style="fill:#005078;" points="122.955,346.933 132.85,351.684 120.629,377.135 110.754,371.887 "/>
<path style="fill:#FAD7B4;" d="M135.307,412.563c0.002-5.908,1.611-11.301,4.258-15.346c0.025-0.052,0.035-0.06,0.035-0.053
	c0-0.008,0.008-0.017,0.008-0.017c2.988-4.557,7.296-7.406,12.068-7.405c4.771,0.001,9.076,2.854,12.064,7.409
	c-0.001,0.01,0.007,0.008,0.007,0.018c0-0.01,0.01,0.001,0.036,0.053c2.644,4.047,4.251,9.439,4.25,15.348
	c-0.001,12.607-7.332,17.654-16.365,17.652C142.631,430.219,135.305,425.173,135.307,412.563z"/>
<path style="fill:#FAD7B4;" d="M147.846,391.412c1.244-0.636,2.688-4.47,3.83-4.469c1.143-0.001,2.582,3.835,3.827,4.469H147.846z"
	/>
<path style="fill:#D3965F;" d="M146.4,404.255c1.63-2.596,15.041-8.102,16.668-10.164c0,0,7.75,5.502,7.747,18.501
	c-0.002,13-10.575,17.63-19.147,17.63c-8.574-0.002-18.605-3.505-18.603-18.069c0.003-10.734,7.265-16.038,7.265-16.038
	C141.727,399.054,143.285,401.501,146.4,404.255z"/>
<path style="fill:#C88C55;" d="M144.652,429.308c-1.048-3.496-1.631-7.339-1.629-11.372c0.001-5.211,0.977-10.1,2.675-14.333
	c-2.645-2.494-4.083-4.782-5.368-7.488c0,0-7.262,5.304-7.265,16.038C133.064,422.797,138.422,427.53,144.652,429.308z"/>
<path style="fill:#DDA069;" d="M141.953,429.379c0-3.105,4.35-5.625,9.716-5.624c5.365,0.002,9.713,2.52,9.712,5.626
	c0,3.106-4.35,5.625-9.715,5.624C146.301,435.004,141.953,432.484,141.953,429.379z"/>
<g>
	<g>
		<path style="fill:#FCDABF;" d="M295.721,155.578l-2.132-9.183l-1.358-0.047c-1.881-0.333-2.459-0.163-4.282,0.409l-5.171,1.62
			l0.657,11.051L295.721,155.578z"/>
		<path style="fill:#FCDABF;" d="M287.176,158.274l-0.607-2.623l-9.902,3.102c-2.481,0.78-1.872,3.402,0.609,2.623L287.176,158.274z
			"/>
		<path style="fill:#FCDABF;" d="M286.346,155.719l-0.605-2.622l-11.131,3.489c-1.874,0.584-1.265,3.208,0.607,2.621
			L286.346,155.719z"/>
		<path style="fill:#FCDABF;" d="M285.127,153.28l-0.608-2.621l-9.48,2.971c-1.52,0.476-0.912,3.099,0.608,2.622L285.127,153.28z"/>
		<path style="fill:#FCDABF;" d="M285.424,150.376l-0.61-2.62l-6.869,2.152c-2.266,0.708-1.657,3.331,0.612,2.622L285.424,150.376z"
			/>
		<path style="fill:#FCDABF;" d="M294.53,155.506l-4.334,0.576l-4.175,4.858c0,0-1.342,1.671,0.092,2.854l7.516-6.103
			L294.53,155.506z"/>
	</g>
	<path style="fill:#E4B69D;" d="M275.666,159.04c0,0,2.104-0.775,4.225-1.507c0.527-0.186,1.057-0.374,1.551-0.55
		c0.502-0.157,0.98-0.27,1.39-0.37c0.822-0.187,1.389-0.254,1.389-0.254l0.014,0.048c0,0-0.503,0.268-1.284,0.585
		c-0.392,0.15-0.851,0.332-1.351,0.489c-0.507,0.138-1.048,0.287-1.589,0.434c-2.159,0.608-4.33,1.174-4.33,1.174L275.666,159.04z"
		/>
	<path style="fill:#E4B69D;" d="M275.003,156.462c0,0,2.177-0.797,4.367-1.552c0.546-0.192,1.092-0.384,1.604-0.566
		c0.518-0.162,1.012-0.28,1.434-0.385c0.849-0.195,1.434-0.267,1.434-0.267l0.014,0.047c0,0-0.52,0.275-1.329,0.599
		c-0.405,0.155-0.878,0.341-1.397,0.502c-0.523,0.145-1.082,0.297-1.642,0.452c-2.228,0.629-4.472,1.217-4.472,1.217
		L275.003,156.462z"/>
	<path style="fill:#E4B69D;" d="M276.835,153.04c0,0,1.955-0.729,3.926-1.413c0.491-0.176,0.983-0.35,1.442-0.515
		c0.467-0.146,0.913-0.248,1.295-0.339c0.766-0.17,1.295-0.224,1.295-0.224l0.014,0.046c0,0-0.465,0.258-1.191,0.556
		c-0.365,0.142-0.789,0.311-1.255,0.458c-0.474,0.127-0.977,0.264-1.479,0.4c-2.01,0.563-4.033,1.079-4.033,1.079L276.835,153.04z"
		/>
</g>
<g>
	<g>
		<path style="fill:#FCDABF;" d="M299.963,189.189l-6.329,6.985l-0.002-0.001c-1.807-0.622-3.437-1.67-4.753-3.056l-3.73-3.93
			l5.951-9.34L299.963,189.189z"/>
		<path style="fill:#FCDABF;" d="M293.807,182.68l-1.809,1.996l-7.142-7.524c-1.791-1.889,0.016-3.884,1.805-1.996L293.807,182.68z"
			/>
		<path style="fill:#FCDABF;" d="M291.84,184.508l-1.809,1.997l-8.027-8.461c-1.352-1.423,0.453-3.419,1.808-1.995L291.84,184.508z"
			/>
		<path style="fill:#FCDABF;" d="M289.588,186.047l-1.807,1.993l-6.838-7.205c-1.098-1.155,0.708-3.15,1.807-1.996L289.588,186.047z
			"/>
		<path style="fill:#FCDABF;" d="M288.435,188.727l-1.808,1.995l-4.954-5.22c-1.636-1.724,0.171-3.718,1.806-1.994L288.435,188.727z
			"/>
		<path style="fill:#FCDABF;" d="M298.883,188.674l-3.504-2.61l-1.285-6.274c0,0-0.361-2.113,1.468-2.451l3.599,8.99
			L298.883,188.674z"/>
	</g>
	<path style="fill:#E4B69D;" d="M284.156,176.377c0,0,1.623,1.55,3.213,3.131c0.4,0.394,0.801,0.785,1.177,1.153
		c0.361,0.382,0.673,0.761,0.944,1.085c0.529,0.656,0.838,1.135,0.838,1.135l-0.036,0.034c0,0-0.462-0.333-1.091-0.896
		c-0.309-0.286-0.67-0.618-1.033-1c-0.348-0.395-0.718-0.814-1.09-1.235c-1.494-1.67-2.959-3.372-2.959-3.372L284.156,176.377z"/>
	<path style="fill:#E4B69D;" d="M282.324,178.309c0,0,1.674,1.604,3.315,3.238c0.414,0.406,0.827,0.811,1.215,1.192
		c0.374,0.395,0.697,0.785,0.977,1.118c0.549,0.676,0.871,1.169,0.871,1.169l-0.037,0.034c0,0-0.475-0.347-1.122-0.93
		c-0.317-0.297-0.692-0.641-1.065-1.033c-0.359-0.407-0.744-0.841-1.127-1.275c-1.547-1.725-3.063-3.479-3.063-3.479
		L282.324,178.309z"/>
	<path style="fill:#E4B69D;" d="M282.264,182.189c0,0,1.515,1.437,2.996,2.903c0.375,0.363,0.748,0.727,1.099,1.068
		c0.336,0.354,0.624,0.709,0.874,1.011c0.489,0.613,0.772,1.064,0.772,1.064l-0.036,0.034c0,0-0.437-0.305-1.023-0.825
		c-0.288-0.267-0.628-0.571-0.964-0.926c-0.322-0.368-0.666-0.76-1.01-1.151c-1.389-1.556-2.744-3.145-2.744-3.145L282.264,182.189z
		"/>
</g>
<g>
	<path style="fill:#D35400;" d="M323.844,174.323c1.17,12.269,3.397,20.06,9.351,31.107l10.787-5.809
		c1.772,0.006,7.204-25.23,5.674-25.234c1.53,0.004-3.776-25.259-5.548-25.264l-10.76-5.863
		C327.341,154.281,325.073,162.061,323.844,174.323z"/>
	<polygon style="fill:#D35400;" points="312.681,148.232 317.378,136.657 333.348,143.261 329.455,155.037 	"/>
	<polygon style="fill:#D35400;" points="311.814,215.212 306.66,203.83 328.191,194.077 333.194,205.431 	"/>
	<polygon style="fill:#D35400;" points="294.936,157.012 291.007,145.151 317.695,136.8 319.754,149.121 	"/>
	<polygon style="fill:#D35400;" points="291.659,197.152 300.013,187.858 320.34,206.132 311.855,215.214 	"/>
</g>
<path style="fill:#FCDABF;" d="M350.848,191.584c-6.158-0.016-11.773-1.727-15.988-4.507c-0.039-0.021-0.049-0.032-0.05-0.043
	c-0.009,0-0.021-0.009-0.021-0.009c-0.168-0.118-0.338-0.237-0.509-0.354c-0.237-0.158-0.468-0.341-0.688-0.511
	c-4.043-3.075-6.503-7.25-6.491-11.824c0.012-4.563,2.48-8.727,6.52-11.782c0.14-0.107,0.279-0.212,0.42-0.316c0,0,0,0,0.01-0.001
	c0.261-0.189,0.522-0.382,0.803-0.561c0.01-0.001,0.01-0.013,0.019-0.011c0.001-0.01,0.011-0.021,0.05-0.043
	c4.228-2.758,9.853-4.441,16.012-4.426c13.141,0.032,18.381,7.747,18.357,17.244C369.27,183.928,363.988,191.617,350.848,191.584z"
	/>
<path style="fill:#FCDABF;" d="M328.827,178.327c-0.658-1.3-4.649-2.813-4.646-4.002c0.004-1.189,4.001-2.686,4.666-3.98
	L328.827,178.327z"/>
<path style="fill:#D3965F;" d="M350.848,191.584c-6.158-0.016-11.773-1.727-15.988-4.507c-0.039-0.021-0.049-0.032-0.05-0.043
	c-0.009,0-0.021-0.009-0.021-0.009c-0.168-0.118-0.338-0.237-0.509-0.354l-0.688-0.511c0,0,1.259,0.438,1.265-2.129
	c0.009-3.532-2.243-6.414-2.236-9.768c0.009-3.363,2.275-6.231,2.285-9.765c0.006-2.389-0.745-2.295-0.855-2.263
	c0.261-0.189,0.522-0.382,0.803-0.561c0.01-0.001,0.01-0.013,0.019-0.011c0.001-0.01,0.011-0.021,0.05-0.043
	c4.228-2.758,9.853-4.441,16.012-4.426c13.141,0.032,18.381,7.747,18.357,17.244C369.27,183.928,363.988,191.617,350.848,191.584z"
	/>
<path style="fill:#C88C55;" d="M334.857,184.032c-0.006,2.567-1.265,2.129-1.265,2.129l0.688,0.511
	c0.171,0.116,0.341,0.235,0.509,0.354c0,0,0.012,0.009,0.021,0.009c0.001,0.011,0.011,0.021,0.05,0.043
	c4.215,2.78,9.83,4.491,15.988,4.507c13.141,0.033,18.422-7.656,18.443-17.143l-36.662-0.09
	C332.658,177.665,334.866,180.529,334.857,184.032z"/>
<g>
	
		<rect x="258.948" y="100.475" transform="matrix(0.5899 -0.8075 0.8075 0.5899 17.935 266.2634)" style="fill:#505050;" width="24.304" height="30"/>
	
		<rect x="269.66" y="120.069" transform="matrix(0.5899 -0.8075 0.8075 0.5899 16.2614 276.7695)" style="fill:#8AA5A9;" width="21.864" height="4.616"/>
	<g>
		<path style="fill:#D54A00;" d="M278.279,112.769c-0.719-0.525-0.775-1.682-0.127-2.57l0.27-0.37
			c0.648-0.888,1.768-1.186,2.487-0.66c0.719,0.525,0.776,1.682,0.128,2.57l-0.27,0.37
			C280.118,112.998,278.999,113.294,278.279,112.769z"/>
	</g>
	<g>
		<path style="fill:#8CA8AB;" d="M274.858,117.454c-0.719-0.525-0.777-1.682-0.129-2.57l0.271-0.37
			c0.648-0.888,1.768-1.186,2.486-0.66c0.72,0.525,0.777,1.682,0.129,2.57l-0.27,0.369
			C276.697,117.682,275.577,117.979,274.858,117.454z"/>
	</g>
	<g>
		<path style="fill:#8CA8AB;" d="M271.435,122.139c-0.72-0.525-0.776-1.682-0.128-2.57l0.271-0.37
			c0.648-0.889,1.768-1.185,2.486-0.659c0.72,0.525,0.776,1.682,0.128,2.57l-0.27,0.369
			C273.273,122.367,272.154,122.664,271.435,122.139z"/>
	</g>
	<g>
		<path style="fill:#8CA8AB;" d="M268.012,126.824c-0.719-0.525-0.775-1.682-0.127-2.571l0.27-0.369
			c0.648-0.889,1.769-1.186,2.487-0.66c0.719,0.526,0.776,1.682,0.128,2.57l-0.271,0.37
			C269.851,127.053,268.731,127.349,268.012,126.824z"/>
	</g>
	<g>
		<g>
			<g>
				<path style="fill:#8CA8AB;" d="M274.289,109.852c-0.889-0.649-1.084-1.906-0.436-2.795l0.27-0.369
					c0.648-0.889,1.906-1.084,2.794-0.435l0.37,0.271c0.888,0.649,1.083,1.907,0.435,2.795l-0.269,0.368
					c-0.648,0.889-1.906,1.085-2.795,0.436L274.289,109.852z"/>
			</g>
			<g>
				<path style="fill:#8CA8AB;" d="M270.866,114.537c-0.889-0.649-1.084-1.906-0.435-2.795l0.27-0.369
					c0.648-0.889,1.906-1.084,2.795-0.436l0.37,0.271c0.889,0.649,1.084,1.906,0.435,2.794l-0.27,0.37
					c-0.649,0.888-1.907,1.084-2.796,0.435L270.866,114.537z"/>
			</g>
			<g>
				<path style="fill:#8CA8AB;" d="M267.443,119.223c-0.888-0.649-1.083-1.907-0.435-2.796l0.27-0.369
					c0.648-0.889,1.906-1.085,2.795-0.436l0.369,0.27c0.889,0.649,1.084,1.906,0.436,2.794l-0.271,0.37
					c-0.648,0.888-1.906,1.083-2.795,0.435L267.443,119.223z"/>
			</g>
			<g>
				<path style="fill:#8CA8AB;" d="M264.02,123.908c-0.889-0.648-1.084-1.906-0.435-2.794l0.271-0.371
					c0.648-0.888,1.906-1.084,2.795-0.435l0.369,0.27c0.889,0.649,1.084,1.907,0.436,2.795l-0.27,0.369
					c-0.648,0.888-1.906,1.084-2.795,0.435L264.02,123.908z"/>
			</g>
		</g>
	</g>
	<g>
		<path style="fill:#8CA8AB;" d="M269.99,106.712c-0.889-0.649-1.084-1.906-0.436-2.794l0.271-0.369
			c0.648-0.888,1.906-1.084,2.795-0.435l0.368,0.269c0.889,0.649,1.084,1.906,0.436,2.795l-0.271,0.369
			c-0.648,0.888-1.906,1.084-2.795,0.435L269.99,106.712z"/>
	</g>
	<g>
		<path style="fill:#8CA8AB;" d="M266.567,111.397c-0.888-0.649-1.083-1.907-0.435-2.795l0.27-0.369
			c0.648-0.888,1.906-1.084,2.795-0.435l0.368,0.269c0.889,0.649,1.084,1.906,0.436,2.795l-0.271,0.37
			c-0.648,0.889-1.906,1.084-2.794,0.435L266.567,111.397z"/>
	</g>
	<g>
		<path style="fill:#8CA8AB;" d="M263.146,116.081c-0.889-0.649-1.084-1.906-0.435-2.794l0.27-0.369
			c0.648-0.888,1.906-1.084,2.795-0.436l0.368,0.269c0.889,0.648,1.085,1.906,0.436,2.794l-0.27,0.37
			c-0.649,0.888-1.906,1.085-2.795,0.436L263.146,116.081z"/>
	</g>
	<g>
		<path style="fill:#8CA8AB;" d="M265.691,103.571c-0.889-0.649-1.084-1.906-0.436-2.794l0.271-0.369
			c0.648-0.888,1.906-1.084,2.795-0.435l0.369,0.27c0.889,0.649,1.084,1.906,0.435,2.794l-0.27,0.37
			c-0.649,0.888-1.907,1.084-2.796,0.435L265.691,103.571z"/>
	</g>
	<g>
		<path style="fill:#8CA8AB;" d="M262.268,108.256c-0.889-0.648-1.084-1.906-0.436-2.794l0.27-0.37
			c0.649-0.888,1.906-1.084,2.795-0.435l0.368,0.27c0.889,0.649,1.084,1.906,0.436,2.795l-0.27,0.369
			c-0.648,0.889-1.906,1.085-2.795,0.436L262.268,108.256z"/>
	</g>
	<g>
		<path style="fill:#8CA8AB;" d="M258.846,112.942c-0.889-0.649-1.084-1.907-0.436-2.795l0.27-0.369
			c0.648-0.888,1.906-1.084,2.795-0.436l0.369,0.27c0.889,0.649,1.084,1.906,0.436,2.795l-0.27,0.369
			c-0.648,0.889-1.906,1.084-2.795,0.436L258.846,112.942z"/>
	</g>
	<g>
		<path style="fill:#DCA000;" d="M255.424,117.626c-0.889-0.649-1.084-1.906-0.436-2.795l0.27-0.369
			c0.648-0.889,1.906-1.085,2.795-0.436l4.668,3.411c0.889,0.649,1.084,1.906,0.436,2.794l-0.27,0.369
			c-0.649,0.888-1.907,1.084-2.796,0.435L255.424,117.626z"/>
	</g>
	<polygon style="fill:#ABC2C0;" points="278.963,120.693 279.968,127.145 283.744,121.974 282.739,115.522 	"/>
	<g>
		<path style="fill:#323232;" d="M276.333,129.788c0.261,0.19,0.427,0.375,0.496,0.55c0.067,0.176,0.019,0.379-0.149,0.61
			c-0.168,0.23-0.348,0.341-0.538,0.329c-0.189-0.009-0.413-0.109-0.677-0.3l-1.407-1.029c-0.272-0.199-0.447-0.39-0.53-0.573
			c-0.082-0.184-0.036-0.393,0.135-0.628c0.171-0.234,0.357-0.342,0.556-0.319c0.199,0.02,0.434,0.133,0.708,0.332L276.333,129.788z
			 M275.736,130.645c0.284,0.209,0.482,0.26,0.592,0.154c0.019-0.016,0.04-0.041,0.065-0.079c0.026-0.035,0.045-0.075,0.056-0.117
			c0.011-0.043-0.007-0.102-0.053-0.178c-0.047-0.075-0.144-0.168-0.295-0.278l-1.436-1.049c-0.005-0.003-0.01-0.006-0.014-0.009
			c-0.267-0.195-0.448-0.275-0.548-0.249c-0.052,0.015-0.095,0.045-0.129,0.092c-0.034,0.048-0.056,0.083-0.068,0.106
			c-0.012,0.023-0.018,0.055-0.016,0.093c0.003,0.115,0.136,0.267,0.397,0.458c0.005,0.002,0.007,0.006,0.013,0.007L275.736,130.645
			z"/>
	</g>
	
		<rect x="265.233" y="119.854" transform="matrix(0.5899 -0.8075 0.8075 0.5899 16.8138 273.2354)" style="fill:#323232;" width="24.304" height="0.425"/>
</g>
<g>
	
		<rect x="241.837" y="287.851" transform="matrix(0.8122 -0.5834 0.5834 0.8122 -124.518 197.3621)" style="fill:#787878;" width="4.82" height="8.417"/>
	<path style="fill:#C8C8C8;" d="M243.972,295.807l3.124-3.913l0.611-0.763c0.094-0.121,0.23-0.203,0.384-0.234l2.413-0.495
		c0.365-0.076,0.662-0.327,0.799-0.67c0.138-0.349,0.088-0.738-0.129-1.039l-1.547-2.152c-0.219-0.305-0.568-0.473-0.939-0.456
		c-0.375,0.019-0.707,0.221-0.894,0.546l-1.239,2.129c-0.078,0.136-0.202,0.235-0.344,0.29l-0.918,0.335l-4.709,1.709l0.263,0.364
		l4.705-1.712l0.806-0.292c0.24-0.087,0.441-0.259,0.57-0.478l1.239-2.129c0.115-0.194,0.315-0.316,0.539-0.329
		c0.225-0.013,0.44,0.094,0.571,0.275l1.546,2.152c0.131,0.183,0.161,0.416,0.079,0.629c-0.084,0.208-0.264,0.358-0.484,0.405
		l-2.416,0.492c-0.248,0.052-0.473,0.191-0.631,0.391l-0.535,0.671l-3.123,3.913L243.972,295.807z"/>
</g>
</svg>
